<svg width="570" height="380" viewBox="0 0 570 380" fill="none" xmlns="http://www.w3.org/2000/svg">
<path d="M348.645 98.0098C353.022 63.1827 328.338 31.4014 293.51 27.0244C258.683 22.6473 226.902 47.3319 222.525 82.159C218.148 116.986 242.833 148.767 277.66 153.144C312.487 157.521 344.268 132.837 348.645 98.0098Z" fill="#FFD12D"/>
<path d="M144.821 92.6286C144.001 81.8168 134.989 73.2942 123.968 73.2942C112.946 73.2942 103.933 81.8168 103.113 92.6286H144.821Z" fill="#BCC4E9"/>
<path d="M167.576 92.6286C169.488 89.4693 170.61 85.778 170.61 81.8153C170.61 70.2534 161.237 60.8804 149.675 60.8804C138.113 60.8804 128.74 70.2534 128.74 81.8153C128.74 85.778 129.861 89.4693 131.773 92.6286H167.576Z" fill="#BCC4E9"/>
<path d="M192.277 92.6285C190.697 82.6314 182.067 74.979 171.625 74.979C161.183 74.979 152.553 82.6314 150.973 92.6285H192.277Z" fill="#BCC4E9"/>
<path d="M417.073 92.6286C416.253 81.8168 407.241 73.2942 396.22 73.2942C385.198 73.2942 376.185 81.8168 375.365 92.6286H417.073Z" fill="#BCC4E9"/>
<path d="M439.828 92.6286C441.74 89.4693 442.862 85.778 442.862 81.8153C442.862 70.2534 433.489 60.8804 421.927 60.8804C410.365 60.8804 400.992 70.2534 400.992 81.8153C400.992 85.778 402.113 89.4693 404.025 92.6286H439.828Z" fill="#BCC4E9"/>
<path d="M464.529 92.6287C462.949 82.6317 454.318 74.9792 443.877 74.9792C433.435 74.9792 424.805 82.6317 423.225 92.6287H464.529Z" fill="#BCC4E9"/>
<path d="M337.232 80.376H278.865V312.135H337.232V80.376Z" fill="#ABAAB0"/>
<path d="M289.396 105.413H282.172V113.588H289.396V105.413Z" fill="white"/>
<path d="M300.137 105.413H292.912V113.588H300.137V105.413Z" fill="white"/>
<path d="M310.879 105.413H303.654V113.588H310.879V105.413Z" fill="white"/>
<path d="M321.619 105.413H314.395V113.588H321.619V105.413Z" fill="white"/>
<path d="M332.361 105.413H325.137V113.588H332.361V105.413Z" fill="white"/>
<path d="M289.396 128.91H282.172V137.085H289.396V128.91Z" fill="white"/>
<path d="M300.137 128.91H292.912V137.085H300.137V128.91Z" fill="white"/>
<path d="M310.879 128.91H303.654V137.085H310.879V128.91Z" fill="white"/>
<path d="M321.619 128.91H314.395V137.085H321.619V128.91Z" fill="white"/>
<path d="M332.361 128.91H325.137V137.085H332.361V128.91Z" fill="white"/>
<path d="M289.396 152.407H282.172V160.583H289.396V152.407Z" fill="white"/>
<path d="M300.137 152.407H292.912V160.583H300.137V152.407Z" fill="white"/>
<path d="M310.879 152.407H303.654V160.583H310.879V152.407Z" fill="white"/>
<path d="M321.619 152.407H314.395V160.583H321.619V152.407Z" fill="white"/>
<path d="M332.361 152.407H325.137V160.583H332.361V152.407Z" fill="white"/>
<path d="M289.396 175.905H282.172V184.08H289.396V175.905Z" fill="white"/>
<path d="M300.137 175.905H292.912V184.08H300.137V175.905Z" fill="white"/>
<path d="M310.879 175.905H303.654V184.08H310.879V175.905Z" fill="white"/>
<path d="M321.619 175.905H314.395V184.08H321.619V175.905Z" fill="white"/>
<path d="M332.361 175.905H325.137V184.08H332.361V175.905Z" fill="white"/>
<path d="M289.396 199.403H282.172V207.578H289.396V199.403Z" fill="white"/>
<path d="M300.137 199.403H292.912V207.578H300.137V199.403Z" fill="white"/>
<path d="M310.879 199.403H303.654V207.578H310.879V199.403Z" fill="white"/>
<path d="M321.619 199.403H314.395V207.578H321.619V199.403Z" fill="white"/>
<path d="M332.361 199.403H325.137V207.578H332.361V199.403Z" fill="white"/>
<path d="M289.396 222.9H282.172V231.075H289.396V222.9Z" fill="white"/>
<path d="M300.137 222.9H292.912V231.075H300.137V222.9Z" fill="white"/>
<path d="M310.879 222.9H303.654V231.075H310.879V222.9Z" fill="white"/>
<path d="M321.619 222.9H314.395V231.075H321.619V222.9Z" fill="white"/>
<path d="M332.361 222.9H325.137V231.075H332.361V222.9Z" fill="white"/>
<path d="M300.139 237.853H285.785V308.099H300.139V237.853Z" fill="white"/>
<path d="M328.797 237.853H314.443V308.099H328.797V237.853Z" fill="white"/>
<path d="M462.78 312.307V257.924H468.493V312.307H468.863V257.591H462.41V312.307H462.78Z" fill="#9A999E"/>
<path d="M468.677 263.631H462.596V264H468.677V263.631Z" fill="#9A999E"/>
<path d="M462.779 257.961L468.677 263.816" stroke="#9A999E" stroke-width="0.4866" stroke-miterlimit="10"/>
<path d="M468.677 257.961L462.779 263.816" stroke="#9A999E" stroke-width="0.4866" stroke-miterlimit="10"/>
<path d="M468.677 269.672H462.596V270.041H468.677V269.672Z" fill="#9A999E"/>
<path d="M462.779 264.001L468.677 269.856" stroke="#9A999E" stroke-width="0.4866" stroke-miterlimit="10"/>
<path d="M468.677 264.001L462.779 269.856" stroke="#9A999E" stroke-width="0.4866" stroke-miterlimit="10"/>
<path d="M468.677 275.712H462.596V276.082H468.677V275.712Z" fill="#9A999E"/>
<path d="M462.779 270.042L468.677 275.897" stroke="#9A999E" stroke-width="0.4866" stroke-miterlimit="10"/>
<path d="M468.677 270.042L462.779 275.897" stroke="#9A999E" stroke-width="0.4866" stroke-miterlimit="10"/>
<path d="M468.677 281.752H462.596V282.122H468.677V281.752Z" fill="#9A999E"/>
<path d="M462.779 276.081L468.677 281.937" stroke="#9A999E" stroke-width="0.4866" stroke-miterlimit="10"/>
<path d="M468.677 276.081L462.779 281.937" stroke="#9A999E" stroke-width="0.4866" stroke-miterlimit="10"/>
<path d="M468.677 287.792H462.596V288.162H468.677V287.792Z" fill="#9A999E"/>
<path d="M462.779 282.122L468.677 287.978" stroke="#9A999E" stroke-width="0.4866" stroke-miterlimit="10"/>
<path d="M468.677 282.122L462.779 287.978" stroke="#9A999E" stroke-width="0.4866" stroke-miterlimit="10"/>
<path d="M468.677 293.833H462.596V294.202H468.677V293.833Z" fill="#9A999E"/>
<path d="M462.779 288.162L468.677 294.018" stroke="#9A999E" stroke-width="0.4866" stroke-miterlimit="10"/>
<path d="M468.677 288.162L462.779 294.018" stroke="#9A999E" stroke-width="0.4866" stroke-miterlimit="10"/>
<path d="M468.677 299.873H462.596V300.243H468.677V299.873Z" fill="#9A999E"/>
<path d="M462.779 294.203L468.677 300.058" stroke="#9A999E" stroke-width="0.4866" stroke-miterlimit="10"/>
<path d="M468.677 294.203L462.779 300.058" stroke="#9A999E" stroke-width="0.4866" stroke-miterlimit="10"/>
<path d="M468.677 305.914H462.596V306.284H468.677V305.914Z" fill="#9A999E"/>
<path d="M462.779 300.243L468.677 306.098" stroke="#9A999E" stroke-width="0.4866" stroke-miterlimit="10"/>
<path d="M468.677 300.243L462.779 306.098" stroke="#9A999E" stroke-width="0.4866" stroke-miterlimit="10"/>
<path d="M468.863 311.954H462.41V312.323H468.863V311.954Z" fill="#9A999E"/>
<path d="M462.779 306.283L468.677 312.139" stroke="#9A999E" stroke-width="0.4866" stroke-miterlimit="10"/>
<path d="M468.677 306.283L462.779 312.139" stroke="#9A999E" stroke-width="0.4866" stroke-miterlimit="10"/>
<path d="M259.714 312.134H210.898V95.8816L259.714 118.304V312.134Z" fill="#E7E8EA"/>
<path d="M219.707 139.243H213.664V146.08H219.707V139.243Z" fill="white"/>
<path d="M228.689 139.243H222.646V146.08H228.689V139.243Z" fill="white"/>
<path d="M237.674 139.243H231.631V146.08H237.674V139.243Z" fill="white"/>
<path d="M246.656 139.243H240.613V146.08H246.656V139.243Z" fill="white"/>
<path d="M255.64 139.243H249.598V146.08H255.64V139.243Z" fill="white"/>
<path d="M219.707 158.895H213.664V165.732H219.707V158.895Z" fill="white"/>
<path d="M228.689 158.895H222.646V165.732H228.689V158.895Z" fill="white"/>
<path d="M237.674 158.895H231.631V165.732H237.674V158.895Z" fill="white"/>
<path d="M246.656 158.895H240.613V165.732H246.656V158.895Z" fill="white"/>
<path d="M255.64 158.895H249.598V165.732H255.64V158.895Z" fill="white"/>
<path d="M219.707 178.547H213.664V185.384H219.707V178.547Z" fill="white"/>
<path d="M228.689 178.547H222.646V185.384H228.689V178.547Z" fill="white"/>
<path d="M237.674 178.547H231.631V185.384H237.674V178.547Z" fill="white"/>
<path d="M246.656 178.547H240.613V185.384H246.656V178.547Z" fill="white"/>
<path d="M255.64 178.547H249.598V185.384H255.64V178.547Z" fill="white"/>
<path d="M219.707 198.199H213.664V205.036H219.707V198.199Z" fill="white"/>
<path d="M228.689 198.199H222.646V205.036H228.689V198.199Z" fill="white"/>
<path d="M237.674 198.199H231.631V205.036H237.674V198.199Z" fill="white"/>
<path d="M246.656 198.199H240.613V205.036H246.656V198.199Z" fill="white"/>
<path d="M255.64 198.199H249.598V205.036H255.64V198.199Z" fill="white"/>
<path d="M219.707 217.851H213.664V224.688H219.707V217.851Z" fill="white"/>
<path d="M228.689 217.851H222.646V224.688H228.689V217.851Z" fill="white"/>
<path d="M237.674 217.851H231.631V224.688H237.674V217.851Z" fill="white"/>
<path d="M246.656 217.851H240.613V224.688H246.656V217.851Z" fill="white"/>
<path d="M255.64 217.851H249.598V224.688H255.64V217.851Z" fill="white"/>
<path d="M219.707 237.503H213.664V244.34H219.707V237.503Z" fill="white"/>
<path d="M228.689 237.503H222.646V244.34H228.689V237.503Z" fill="white"/>
<path d="M237.674 237.503H231.631V244.34H237.674V237.503Z" fill="white"/>
<path d="M246.656 237.503H240.613V244.34H246.656V237.503Z" fill="white"/>
<path d="M255.64 237.503H249.598V244.34H255.64V237.503Z" fill="white"/>
<path d="M228.69 250.01H216.686V308.759H228.69V250.01Z" fill="white"/>
<path d="M252.658 250.01H240.654V308.759H252.658V250.01Z" fill="white"/>
<path d="M491.339 247.004H471.309V314.182H491.339V247.004Z" fill="#9A999E"/>
<path d="M488.154 284.392H474.493C473.676 284.392 473.014 283.729 473.014 282.912C473.014 282.095 473.676 281.432 474.493 281.432H488.154C488.971 281.432 489.633 282.095 489.633 282.912C489.633 283.729 488.971 284.392 488.154 284.392Z" fill="white"/>
<path d="M488.154 264.104H474.493C473.676 264.104 473.014 263.441 473.014 262.624C473.014 261.807 473.676 261.144 474.493 261.144H488.154C488.971 261.144 489.633 261.807 489.633 262.624C489.633 263.441 488.971 264.104 488.154 264.104Z" fill="white"/>
<path d="M488.154 304.68H474.493C473.676 304.68 473.014 304.017 473.014 303.2C473.014 302.383 473.676 301.721 474.493 301.721H488.154C488.971 301.721 489.633 302.383 489.633 303.2C489.633 304.017 488.971 304.68 488.154 304.68Z" fill="white"/>
<path d="M485.327 260.051H477.319C475.289 260.051 473.643 258.406 473.643 256.375V252.698C473.643 250.668 475.289 249.021 477.319 249.021H485.327C487.357 249.021 489.003 250.667 489.003 252.698V256.375C489.003 258.406 487.357 260.051 485.327 260.051Z" fill="#CCCBD3"/>
<path d="M485.327 277.901H477.319C475.289 277.901 473.643 276.255 473.643 274.225V270.547C473.643 268.517 475.289 266.871 477.319 266.871H485.327C487.357 266.871 489.003 268.516 489.003 270.547V274.225C489.003 276.255 487.357 277.901 485.327 277.901Z" fill="#CCCBD3"/>
<path d="M485.327 298.481H477.319C475.289 298.481 473.643 296.835 473.643 294.805V291.127C473.643 289.097 475.289 287.451 477.319 287.451H485.327C487.357 287.451 489.003 289.096 489.003 291.127V294.805C489.003 296.835 487.357 298.481 485.327 298.481Z" fill="#CCCBD3"/>
<path d="M181.507 170.659H145.883V312.111H181.507V170.659Z" fill="#BCC4E9"/>
<path d="M158.329 173.123H149.996V311.055H158.329V173.123Z" fill="white"/>
<path d="M177.079 173.123H168.746V311.055H177.079V173.123Z" fill="white"/>
<path d="M133.881 295.5V139.043H117.445V295.5H116.381V138.083H134.945V295.5H133.881Z" fill="#FFA40A"/>
<path d="M134.412 155.462H116.914V156.526H134.412V155.462Z" fill="#FFA40A"/>
<path d="M133.508 138.759L116.541 155.606L117.291 156.361L134.257 139.514L133.508 138.759Z" fill="#FFA40A"/>
<path d="M117.289 138.78L116.539 139.535L133.506 156.382L134.256 155.627L117.289 138.78Z" fill="#FFA40A"/>
<path d="M134.412 172.84H116.914V173.904H134.412V172.84Z" fill="#FFA40A"/>
<path d="M133.505 156.148L116.539 172.994L117.288 173.749L134.254 156.902L133.505 156.148Z" fill="#FFA40A"/>
<path d="M117.29 156.135L116.541 156.889L133.51 173.734L134.259 172.979L117.29 156.135Z" fill="#FFA40A"/>
<path d="M134.412 190.217H116.914V191.281H134.412V190.217Z" fill="#FFA40A"/>
<path d="M133.511 173.531L116.533 190.366L117.282 191.122L134.261 174.287L133.511 173.531Z" fill="#FFA40A"/>
<path d="M117.287 173.538L116.537 174.293L133.503 191.14L134.253 190.385L117.287 173.538Z" fill="#FFA40A"/>
<path d="M134.412 207.595H116.914V208.659H134.412V207.595Z" fill="#FFA40A"/>
<path d="M133.513 190.898L116.535 207.732L117.284 208.488L134.263 191.653L133.513 190.898Z" fill="#FFA40A"/>
<path d="M117.289 190.893L116.539 191.648L133.508 208.492L134.257 207.737L117.289 190.893Z" fill="#FFA40A"/>
<path d="M134.412 224.973H116.914V226.037H134.412V224.973Z" fill="#FFA40A"/>
<path d="M133.512 208.287L116.533 225.122L117.282 225.877L134.261 209.042L133.512 208.287Z" fill="#FFA40A"/>
<path d="M117.285 208.296L116.535 209.051L133.502 225.898L134.252 225.143L117.285 208.296Z" fill="#FFA40A"/>
<path d="M134.412 242.351H116.914V243.415H134.412V242.351Z" fill="#FFA40A"/>
<path d="M133.516 225.651L116.537 242.487L117.287 243.243L134.266 226.407L133.516 225.651Z" fill="#FFA40A"/>
<path d="M117.283 225.673L116.533 226.429L133.5 243.276L134.25 242.521L117.283 225.673Z" fill="#FFA40A"/>
<path d="M134.412 259.728H116.914V260.792H134.412V259.728Z" fill="#FFA40A"/>
<path d="M133.515 243.03L116.537 259.864L117.287 260.62L134.265 243.786L133.515 243.03Z" fill="#FFA40A"/>
<path d="M117.291 243.024L116.541 243.78L133.51 260.624L134.26 259.868L117.291 243.024Z" fill="#FFA40A"/>
<path d="M134.412 277.106H116.914V278.17H134.412V277.106Z" fill="#FFA40A"/>
<path d="M133.514 260.42L116.535 277.256L117.285 278.012L134.264 261.176L133.514 260.42Z" fill="#FFA40A"/>
<path d="M117.283 260.43L116.533 261.186L133.5 278.033L134.25 277.277L117.283 260.43Z" fill="#FFA40A"/>
<path d="M134.944 294.484H116.381V295.548H134.944V294.484Z" fill="#FFA40A"/>
<path d="M133.518 277.783L116.539 294.618L117.289 295.374L134.268 278.539L133.518 277.783Z" fill="#FFA40A"/>
<path d="M117.281 277.808L116.531 278.564L133.498 295.411L134.248 294.656L117.281 277.808Z" fill="#FFA40A"/>
<path d="M238.464 156.114H230.041V173.372H238.464V156.114Z" fill="#FFA40A"/>
<path d="M234.871 172.124H233.619V180.679H234.871V172.124Z" fill="#FFA40A"/>
<path d="M234.871 191.879H233.619V194.815H234.871V191.879Z" fill="#FFA40A"/>
<path d="M234.593 192.412H233.914C232.417 192.412 231.199 191.194 231.199 189.697V182.426C231.199 180.928 232.417 179.711 233.914 179.711H234.593C236.091 179.711 237.308 180.928 237.308 182.426V189.697C237.307 191.194 236.091 192.412 234.593 192.412ZM233.914 180.774C233.003 180.774 232.263 181.515 232.263 182.426V189.697C232.263 190.607 233.004 191.347 233.914 191.347H234.593C235.504 191.347 236.244 190.606 236.244 189.697V182.426C236.244 181.515 235.503 180.774 234.593 180.774H233.914Z" fill="#FFA40A"/>
<path d="M210.353 156.114H201.93V173.372H210.353V156.114Z" fill="#FFA40A"/>
<path d="M206.664 172.124H205.412V180.679H206.664V172.124Z" fill="#FFA40A"/>
<path d="M206.664 191.879H205.412V194.815H206.664V191.879Z" fill="#FFA40A"/>
<path d="M206.377 192.412H205.697C204.2 192.412 202.982 191.194 202.982 189.697V182.426C202.982 180.928 204.2 179.711 205.697 179.711H206.377C207.874 179.711 209.091 180.928 209.091 182.426V189.697C209.091 191.194 207.874 192.412 206.377 192.412ZM205.697 180.774C204.787 180.774 204.046 181.515 204.046 182.426V189.697C204.046 190.607 204.787 191.347 205.697 191.347H206.377C207.287 191.347 208.028 190.606 208.028 189.697V182.426C208.028 181.515 207.287 180.774 206.377 180.774H205.697Z" fill="#FFA40A"/>
<path d="M126.307 139.148H116.289V115.017H126.307V139.148ZM117.352 138.084H125.243V116.081H117.352V138.084Z" fill="#FFA40A"/>
<path d="M125.775 122.164H116.82V123.228H125.775V122.164Z" fill="#FFA40A"/>
<path d="M125.664 130.259H116.82V131.387H125.664V130.259Z" fill="#FFA40A"/>
<path d="M256.326 139.146H83.1284V155.583H256.326V156.647H82.0645V138.083H256.326V139.146Z" fill="#FFA40A"/>
<path d="M100.507 138.616H99.4434V156.114H100.507V138.616Z" fill="#FFA40A"/>
<path d="M117.353 138.616H116.289V156.114H117.353V138.616Z" fill="#FFA40A"/>
<path d="M83.505 138.765L82.75 139.515L99.5967 156.481L100.352 155.732L83.505 138.765Z" fill="#FFA40A"/>
<path d="M99.5943 138.773L82.75 155.741L83.5051 156.491L100.349 139.522L99.5943 138.773Z" fill="#FFA40A"/>
<path d="M100.352 138.763L99.5977 139.512L116.444 156.478L117.199 155.729L100.352 138.763Z" fill="#FFA40A"/>
<path d="M116.44 138.781L99.5938 155.747L100.348 156.496L117.195 139.53L116.44 138.781Z" fill="#FFA40A"/>
<path d="M134.73 138.616H133.666V156.114H134.73V138.616Z" fill="#FFA40A"/>
<path d="M117.729 138.765L116.975 139.514L133.821 156.481L134.576 155.731L117.729 138.765Z" fill="#FFA40A"/>
<path d="M133.819 138.782L116.973 155.748L117.727 156.497L134.574 139.531L133.819 138.782Z" fill="#FFA40A"/>
<path d="M152.109 138.616H151.045V156.114H152.109V138.616Z" fill="#FFA40A"/>
<path d="M135.106 138.761L134.352 139.51L151.198 156.477L151.953 155.728L135.106 138.761Z" fill="#FFA40A"/>
<path d="M151.198 138.782L134.352 155.749L135.106 156.498L151.953 139.531L151.198 138.782Z" fill="#FFA40A"/>
<path d="M169.486 138.616H168.422V156.114H169.486V138.616Z" fill="#FFA40A"/>
<path d="M152.483 138.761L151.729 139.51L168.575 156.476L169.33 155.727L152.483 138.761Z" fill="#FFA40A"/>
<path d="M168.575 138.762L151.73 155.731L152.485 156.48L169.329 139.511L168.575 138.762Z" fill="#FFA40A"/>
<path d="M186.865 138.616H185.801V156.114H186.865V138.616Z" fill="#FFA40A"/>
<path d="M169.86 138.763L169.105 139.512L185.952 156.479L186.707 155.73L169.86 138.763Z" fill="#FFA40A"/>
<path d="M185.954 138.784L169.107 155.75L169.862 156.499L186.709 139.533L185.954 138.784Z" fill="#FFA40A"/>
<path d="M204.242 138.616H203.178V156.114H204.242V138.616Z" fill="#FFA40A"/>
<path d="M187.237 138.758L186.482 139.507L203.329 156.474L204.084 155.724L187.237 138.758Z" fill="#FFA40A"/>
<path d="M203.333 138.785L186.486 155.751L187.241 156.5L204.088 139.534L203.333 138.785Z" fill="#FFA40A"/>
<path d="M221.619 138.616H220.555V156.114H221.619V138.616Z" fill="#FFA40A"/>
<path d="M204.616 138.762L203.861 139.511L220.708 156.478L221.463 155.728L204.616 138.762Z" fill="#FFA40A"/>
<path d="M220.708 138.761L203.863 155.729L204.618 156.479L221.463 139.51L220.708 138.761Z" fill="#FFA40A"/>
<path d="M238.998 138.616H237.934V156.114H238.998V138.616Z" fill="#FFA40A"/>
<path d="M221.991 138.758L221.236 139.508L238.083 156.474L238.838 155.724L221.991 138.758Z" fill="#FFA40A"/>
<path d="M238.083 138.761L221.238 155.729L221.993 156.479L238.838 139.51L238.083 138.761Z" fill="#FFA40A"/>
<path d="M256.375 138.083H255.311V156.646H256.375V138.083Z" fill="#FFA40A"/>
<path d="M239.37 138.757L238.615 139.507L255.462 156.473L256.217 155.723L239.37 138.757Z" fill="#FFA40A"/>
<path d="M255.461 138.76L238.617 155.729L239.372 156.478L256.217 139.51L255.461 138.76Z" fill="#FFA40A"/>
<path d="M83.1249 156.649H38.918L43.3503 151.796L83.1256 145.405L83.1249 156.649ZM41.2762 155.61H82.0852V146.626L43.8739 152.766L41.2762 155.61Z" fill="#FFA40A"/>
<path d="M51.5271 156.649C51.3964 156.649 51.2702 156.6 51.1737 156.51L46.9443 152.589L44.83 156.253C44.7403 156.408 44.5769 156.507 44.3968 156.513C44.2258 156.523 44.0472 156.431 43.9476 156.282L42.1875 153.654C42.0279 153.416 42.0917 153.093 42.3303 152.933C42.5697 152.773 42.8912 152.837 43.0516 153.076L44.3466 155.009L46.369 151.506C46.448 151.369 46.5848 151.275 46.7414 151.251C46.8972 151.224 47.0553 151.276 47.1731 151.384L51.4412 155.341L54.9137 150.328C54.9995 150.205 55.1341 150.125 55.2838 150.108C55.4335 150.094 55.5817 150.14 55.6927 150.242L61.2787 155.359L66.6511 148.2C66.74 148.08 66.8768 148.005 67.0258 147.994C67.1732 147.981 67.3214 148.034 67.4278 148.138L74.8918 155.349L81.6489 146.452C81.8222 146.224 82.1483 146.179 82.3778 146.353C82.6065 146.527 82.6506 146.853 82.4773 147.082L75.366 156.444C75.2756 156.563 75.1395 156.636 74.9921 156.648C74.8371 156.658 74.6972 156.606 74.5908 156.503L67.1291 149.295L61.7666 156.441C61.6784 156.558 61.5454 156.633 61.3987 156.647C61.2513 156.663 61.1077 156.612 60.999 156.513L55.4289 151.411L51.955 156.425C51.8691 156.549 51.7338 156.63 51.5833 156.646C51.5651 156.649 51.5461 156.649 51.5271 156.649Z" fill="#FFA40A"/>
<path d="M116.553 115.031L43.3613 151.791L43.8678 152.799L117.06 116.04L116.553 115.031Z" fill="#FFA40A"/>
<path d="M125.877 114.988L125.68 116.1L255.472 139.168L255.669 138.057L125.877 114.988Z" fill="#FFA40A"/>
<path d="M213.004 206.742C214.13 201.997 211.196 197.237 206.451 196.111C201.706 194.985 196.946 197.919 195.82 202.664C194.694 207.409 197.628 212.169 202.373 213.295C207.118 214.421 211.878 211.487 213.004 206.742Z" fill="#C6C5CC"/>
<path d="M241.847 195.877H203.48V213.538H241.847V195.877Z" fill="#C6C5CC"/>
<path d="M246.718 210.952C250.167 207.504 250.167 201.912 246.718 198.464C243.27 195.016 237.679 195.016 234.23 198.464C230.782 201.912 230.782 207.504 234.23 210.952C237.679 214.4 243.27 214.4 246.718 210.952Z" fill="#A1A0A6"/>
<path d="M209.2 213.52C208.455 213.717 207.679 213.833 206.873 213.833C201.841 213.833 197.748 209.739 197.748 204.707C197.748 199.677 201.841 195.584 206.873 195.584C207.631 195.584 208.364 195.687 209.069 195.862H213.1C211.336 194.617 209.191 193.878 206.873 193.878C200.902 193.878 196.043 198.736 196.043 204.707C196.043 210.679 200.902 215.538 206.873 215.538C209.211 215.538 211.372 214.786 213.144 213.521H209.2V213.52Z" fill="#A1A0A6"/>
<path d="M236.532 213.52C235.788 213.717 235.011 213.833 234.205 213.833C229.173 213.833 225.08 209.739 225.08 204.707C225.08 199.677 229.174 195.584 234.205 195.584C234.963 195.584 235.696 195.687 236.401 195.862H240.432C238.668 194.617 236.523 193.878 234.205 193.878C228.234 193.878 223.375 198.736 223.375 204.707C223.375 210.679 228.234 215.538 234.205 215.538C236.543 215.538 238.704 214.786 240.477 213.521H236.532V213.52Z" fill="#A1A0A6"/>
<path d="M240.477 211.773C244.379 211.773 247.542 208.609 247.542 204.708C247.542 200.806 244.379 197.643 240.477 197.643C236.575 197.643 233.412 200.806 233.412 204.708C233.412 208.609 236.575 211.773 240.477 211.773Z" fill="#8F8F94"/>
<path d="M458.389 244.634H423.889V311.754H458.389V244.634Z" fill="#BCC4E9"/>
<path d="M430.575 247.505H426.305V252.337H430.575V247.505Z" fill="white"/>
<path d="M436.925 247.505H432.654V252.337H436.925V247.505Z" fill="white"/>
<path d="M443.272 247.505H439.002V252.337H443.272V247.505Z" fill="white"/>
<path d="M449.622 247.505H445.352V252.337H449.622V247.505Z" fill="white"/>
<path d="M455.972 247.505H451.701V252.337H455.972V247.505Z" fill="white"/>
<path d="M430.575 254.449H426.305V259.281H430.575V254.449Z" fill="white"/>
<path d="M436.925 254.449H432.654V259.281H436.925V254.449Z" fill="white"/>
<path d="M443.272 254.449H439.002V259.281H443.272V254.449Z" fill="white"/>
<path d="M449.622 254.449H445.352V259.281H449.622V254.449Z" fill="white"/>
<path d="M455.972 254.449H451.701V259.281H455.972V254.449Z" fill="white"/>
<path d="M430.575 261.394H426.305V266.226H430.575V261.394Z" fill="white"/>
<path d="M436.925 261.394H432.654V266.226H436.925V261.394Z" fill="white"/>
<path d="M443.272 261.394H439.002V266.226H443.272V261.394Z" fill="white"/>
<path d="M449.622 261.394H445.352V266.226H449.622V261.394Z" fill="white"/>
<path d="M455.972 261.394H451.701V266.226H455.972V261.394Z" fill="white"/>
<path d="M430.575 268.338H426.305V273.17H430.575V268.338Z" fill="white"/>
<path d="M436.925 268.338H432.654V273.17H436.925V268.338Z" fill="white"/>
<path d="M443.272 268.338H439.002V273.17H443.272V268.338Z" fill="white"/>
<path d="M449.622 268.338H445.352V273.17H449.622V268.338Z" fill="white"/>
<path d="M455.972 268.338H451.701V273.17H455.972V268.338Z" fill="white"/>
<path d="M430.575 275.282H426.305V280.115H430.575V275.282Z" fill="white"/>
<path d="M436.925 275.282H432.654V280.115H436.925V275.282Z" fill="white"/>
<path d="M443.272 275.282H439.002V280.115H443.272V275.282Z" fill="white"/>
<path d="M449.622 275.282H445.352V280.115H449.622V275.282Z" fill="white"/>
<path d="M455.972 275.282H451.701V280.115H455.972V275.282Z" fill="white"/>
<path d="M430.575 282.228H426.305V287.06H430.575V282.228Z" fill="white"/>
<path d="M436.925 282.228H432.654V287.06H436.925V282.228Z" fill="white"/>
<path d="M443.272 282.228H439.002V287.06H443.272V282.228Z" fill="white"/>
<path d="M449.622 282.228H445.352V287.06H449.622V282.228Z" fill="white"/>
<path d="M455.972 282.228H451.701V287.06H455.972V282.228Z" fill="white"/>
<path d="M430.575 289.172H426.305V294.004H430.575V289.172Z" fill="white"/>
<path d="M436.925 289.172H432.654V294.004H436.925V289.172Z" fill="white"/>
<path d="M443.272 289.172H439.002V294.004H443.272V289.172Z" fill="white"/>
<path d="M449.622 289.172H445.352V294.004H449.622V289.172Z" fill="white"/>
<path d="M455.972 289.172H451.701V294.004H455.972V289.172Z" fill="white"/>
<path d="M430.575 296.116H426.305V300.949H430.575V296.116Z" fill="white"/>
<path d="M436.925 296.116H432.654V300.949H436.925V296.116Z" fill="white"/>
<path d="M443.272 296.116H439.002V300.949H443.272V296.116Z" fill="white"/>
<path d="M449.622 296.116H445.352V300.949H449.622V296.116Z" fill="white"/>
<path d="M455.972 296.116H451.701V300.949H455.972V296.116Z" fill="white"/>
<path d="M430.575 303.061H426.305V307.893H430.575V303.061Z" fill="white"/>
<path d="M436.925 303.061H432.654V307.893H436.925V303.061Z" fill="white"/>
<path d="M443.272 303.061H439.002V307.893H443.272V303.061Z" fill="white"/>
<path d="M449.622 303.061H445.352V307.893H449.622V303.061Z" fill="white"/>
<path d="M455.972 303.061H451.701V307.893H455.972V303.061Z" fill="white"/>
<path d="M234.019 219.332H186.33V312.111H234.019V219.332Z" fill="#BCC4E9"/>
<path d="M195.575 223.3H189.672V229.98H195.575V223.3Z" fill="white"/>
<path d="M204.352 223.3H198.449V229.98H204.352V223.3Z" fill="white"/>
<path d="M213.128 223.3H207.225V229.98H213.128V223.3Z" fill="white"/>
<path d="M221.903 223.3H216V229.98H221.903V223.3Z" fill="white"/>
<path d="M230.678 223.3H224.775V229.98H230.678V223.3Z" fill="white"/>
<path d="M195.575 232.9H189.672V239.579H195.575V232.9Z" fill="white"/>
<path d="M204.352 232.9H198.449V239.579H204.352V232.9Z" fill="white"/>
<path d="M213.128 232.9H207.225V239.579H213.128V232.9Z" fill="white"/>
<path d="M221.903 232.9H216V239.579H221.903V232.9Z" fill="white"/>
<path d="M230.678 232.9H224.775V239.579H230.678V232.9Z" fill="white"/>
<path d="M195.575 242.499H189.672V249.179H195.575V242.499Z" fill="white"/>
<path d="M204.352 242.499H198.449V249.179H204.352V242.499Z" fill="white"/>
<path d="M213.128 242.499H207.225V249.179H213.128V242.499Z" fill="white"/>
<path d="M221.903 242.499H216V249.179H221.903V242.499Z" fill="white"/>
<path d="M230.678 242.499H224.775V249.179H230.678V242.499Z" fill="white"/>
<path d="M195.575 252.098H189.672V258.778H195.575V252.098Z" fill="white"/>
<path d="M204.352 252.098H198.449V258.778H204.352V252.098Z" fill="white"/>
<path d="M213.128 252.098H207.225V258.778H213.128V252.098Z" fill="white"/>
<path d="M221.903 252.098H216V258.778H221.903V252.098Z" fill="white"/>
<path d="M230.678 252.098H224.775V258.778H230.678V252.098Z" fill="white"/>
<path d="M195.575 261.698H189.672V268.377H195.575V261.698Z" fill="white"/>
<path d="M204.352 261.698H198.449V268.377H204.352V261.698Z" fill="white"/>
<path d="M213.128 261.698H207.225V268.377H213.128V261.698Z" fill="white"/>
<path d="M221.903 261.698H216V268.377H221.903V261.698Z" fill="white"/>
<path d="M230.678 261.698H224.775V268.377H230.678V261.698Z" fill="white"/>
<path d="M195.575 271.297H189.672V277.977H195.575V271.297Z" fill="white"/>
<path d="M204.352 271.297H198.449V277.977H204.352V271.297Z" fill="white"/>
<path d="M213.128 271.297H207.225V277.977H213.128V271.297Z" fill="white"/>
<path d="M221.903 271.297H216V277.977H221.903V271.297Z" fill="white"/>
<path d="M230.678 271.297H224.775V277.977H230.678V271.297Z" fill="white"/>
<path d="M195.575 280.896H189.672V287.576H195.575V280.896Z" fill="white"/>
<path d="M204.352 280.896H198.449V287.576H204.352V280.896Z" fill="white"/>
<path d="M213.128 280.896H207.225V287.576H213.128V280.896Z" fill="white"/>
<path d="M221.903 280.896H216V287.576H221.903V280.896Z" fill="white"/>
<path d="M230.678 280.896H224.775V287.576H230.678V280.896Z" fill="white"/>
<path d="M195.575 290.496H189.672V297.176H195.575V290.496Z" fill="white"/>
<path d="M204.352 290.496H198.449V297.176H204.352V290.496Z" fill="white"/>
<path d="M213.128 290.496H207.225V297.176H213.128V290.496Z" fill="white"/>
<path d="M221.903 290.496H216V297.176H221.903V290.496Z" fill="white"/>
<path d="M230.678 290.496H224.775V297.176H230.678V290.496Z" fill="white"/>
<path d="M195.575 300.095H189.672V306.775H195.575V300.095Z" fill="white"/>
<path d="M204.352 300.095H198.449V306.775H204.352V300.095Z" fill="white"/>
<path d="M213.128 300.095H207.225V306.775H213.128V300.095Z" fill="white"/>
<path d="M221.903 300.095H216V306.775H221.903V300.095Z" fill="white"/>
<path d="M230.678 300.095H224.775V306.775H230.678V300.095Z" fill="white"/>
<path d="M408.931 118.304H360.115V312.135H408.931V118.304Z" fill="#E7E8EA"/>
<path d="M368.924 139.242H362.881V146.079H368.924V139.242Z" fill="white"/>
<path d="M377.906 139.242H371.863V146.079H377.906V139.242Z" fill="white"/>
<path d="M386.89 139.242H380.848V146.079H386.89V139.242Z" fill="white"/>
<path d="M395.873 139.242H389.83V146.079H395.873V139.242Z" fill="white"/>
<path d="M404.857 139.242H398.814V146.079H404.857V139.242Z" fill="white"/>
<path d="M368.924 158.895H362.881V165.731H368.924V158.895Z" fill="white"/>
<path d="M377.906 158.895H371.863V165.731H377.906V158.895Z" fill="white"/>
<path d="M386.89 158.895H380.848V165.731H386.89V158.895Z" fill="white"/>
<path d="M395.873 158.895H389.83V165.731H395.873V158.895Z" fill="white"/>
<path d="M404.857 158.895H398.814V165.731H404.857V158.895Z" fill="white"/>
<path d="M368.924 178.547H362.881V185.384H368.924V178.547Z" fill="white"/>
<path d="M377.906 178.547H371.863V185.384H377.906V178.547Z" fill="white"/>
<path d="M386.89 178.547H380.848V185.384H386.89V178.547Z" fill="white"/>
<path d="M395.873 178.547H389.83V185.384H395.873V178.547Z" fill="white"/>
<path d="M404.857 178.547H398.814V185.384H404.857V178.547Z" fill="white"/>
<path d="M368.924 198.199H362.881V205.036H368.924V198.199Z" fill="white"/>
<path d="M377.906 198.199H371.863V205.036H377.906V198.199Z" fill="white"/>
<path d="M386.89 198.199H380.848V205.036H386.89V198.199Z" fill="white"/>
<path d="M395.873 198.199H389.83V205.036H395.873V198.199Z" fill="white"/>
<path d="M404.857 198.199H398.814V205.036H404.857V198.199Z" fill="white"/>
<path d="M368.924 217.851H362.881V224.688H368.924V217.851Z" fill="white"/>
<path d="M377.906 217.851H371.863V224.688H377.906V217.851Z" fill="white"/>
<path d="M386.89 217.851H380.848V224.688H386.89V217.851Z" fill="white"/>
<path d="M395.873 217.851H389.83V224.688H395.873V217.851Z" fill="white"/>
<path d="M404.857 217.851H398.814V224.688H404.857V217.851Z" fill="white"/>
<path d="M368.924 237.503H362.881V244.34H368.924V237.503Z" fill="white"/>
<path d="M377.906 237.503H371.863V244.34H377.906V237.503Z" fill="white"/>
<path d="M386.89 237.503H380.848V244.34H386.89V237.503Z" fill="white"/>
<path d="M395.873 237.503H389.83V244.34H395.873V237.503Z" fill="white"/>
<path d="M404.857 237.503H398.814V244.34H404.857V237.503Z" fill="white"/>
<path d="M377.907 250.01H365.902V308.759H377.907V250.01Z" fill="white"/>
<path d="M401.875 250.01H389.871V308.759H401.875V250.01Z" fill="white"/>
<path d="M413.862 300.978V246.596H419.575V300.978H419.945V246.262H413.492V300.978H413.862Z" fill="#9A999E"/>
<path d="M419.76 252.302H413.678V252.672H419.76V252.302Z" fill="#9A999E"/>
<path d="M413.863 246.632L419.761 252.487" stroke="#9A999E" stroke-width="0.4866" stroke-miterlimit="10"/>
<path d="M419.761 246.632L413.863 252.487" stroke="#9A999E" stroke-width="0.4866" stroke-miterlimit="10"/>
<path d="M419.76 258.343H413.678V258.712H419.76V258.343Z" fill="#9A999E"/>
<path d="M413.863 252.673L419.761 258.528" stroke="#9A999E" stroke-width="0.4866" stroke-miterlimit="10"/>
<path d="M419.761 252.673L413.863 258.528" stroke="#9A999E" stroke-width="0.4866" stroke-miterlimit="10"/>
<path d="M419.76 264.383H413.678V264.753H419.76V264.383Z" fill="#9A999E"/>
<path d="M413.863 258.713L419.761 264.568" stroke="#9A999E" stroke-width="0.4866" stroke-miterlimit="10"/>
<path d="M419.761 258.713L413.863 264.568" stroke="#9A999E" stroke-width="0.4866" stroke-miterlimit="10"/>
<path d="M419.76 270.424H413.678V270.793H419.76V270.424Z" fill="#9A999E"/>
<path d="M413.863 264.753L419.761 270.608" stroke="#9A999E" stroke-width="0.4866" stroke-miterlimit="10"/>
<path d="M419.761 264.753L413.863 270.608" stroke="#9A999E" stroke-width="0.4866" stroke-miterlimit="10"/>
<path d="M419.76 276.464H413.678V276.833H419.76V276.464Z" fill="#9A999E"/>
<path d="M413.863 270.793L419.761 276.649" stroke="#9A999E" stroke-width="0.4866" stroke-miterlimit="10"/>
<path d="M419.761 270.793L413.863 276.649" stroke="#9A999E" stroke-width="0.4866" stroke-miterlimit="10"/>
<path d="M419.76 282.504H413.678V282.874H419.76V282.504Z" fill="#9A999E"/>
<path d="M413.863 276.834L419.761 282.69" stroke="#9A999E" stroke-width="0.4866" stroke-miterlimit="10"/>
<path d="M419.761 276.834L413.863 282.69" stroke="#9A999E" stroke-width="0.4866" stroke-miterlimit="10"/>
<path d="M419.76 288.545H413.678V288.915H419.76V288.545Z" fill="#9A999E"/>
<path d="M413.863 282.874L419.761 288.73" stroke="#9A999E" stroke-width="0.4866" stroke-miterlimit="10"/>
<path d="M419.761 282.874L413.863 288.73" stroke="#9A999E" stroke-width="0.4866" stroke-miterlimit="10"/>
<path d="M419.76 294.585H413.678V294.954H419.76V294.585Z" fill="#9A999E"/>
<path d="M413.863 288.915L419.761 294.77" stroke="#9A999E" stroke-width="0.4866" stroke-miterlimit="10"/>
<path d="M419.761 288.915L413.863 294.77" stroke="#9A999E" stroke-width="0.4866" stroke-miterlimit="10"/>
<path d="M419.945 300.625H413.492V300.995H419.945V300.625Z" fill="#9A999E"/>
<path d="M413.863 294.955L419.761 300.81" stroke="#9A999E" stroke-width="0.4866" stroke-miterlimit="10"/>
<path d="M419.761 294.955L413.863 300.81" stroke="#9A999E" stroke-width="0.4866" stroke-miterlimit="10"/>
<path d="M391.167 295.736V183.615H402.945V295.736H403.707V182.927H390.404V295.736H391.167Z" fill="#FFA40A"/>
<path d="M403.326 195.381H390.787V196.143H403.326V195.381Z" fill="#FFA40A"/>
<path d="M391.422 183.392L390.885 183.933L403.045 196.005L403.583 195.463L391.422 183.392Z" fill="#FFA40A"/>
<path d="M403.041 183.391L390.889 195.471L391.427 196.012L403.579 183.932L403.041 183.391Z" fill="#FFA40A"/>
<path d="M403.326 207.834H390.787V208.596H403.326V207.834Z" fill="#FFA40A"/>
<path d="M391.44 195.894L390.902 196.436L403.061 208.509L403.599 207.968L391.44 195.894Z" fill="#FFA40A"/>
<path d="M403.051 195.852L390.887 207.92L391.424 208.462L403.588 196.394L403.051 195.852Z" fill="#FFA40A"/>
<path d="M403.326 220.287H390.787V221.05H403.326V220.287Z" fill="#FFA40A"/>
<path d="M391.425 208.299L390.887 208.841L403.047 220.912L403.585 220.37L391.425 208.299Z" fill="#FFA40A"/>
<path d="M403.051 208.305L390.887 220.373L391.425 220.916L403.589 208.847L403.051 208.305Z" fill="#FFA40A"/>
<path d="M403.326 232.741H390.787V233.503H403.326V232.741Z" fill="#FFA40A"/>
<path d="M391.427 220.751L390.889 221.293L403.049 233.365L403.587 232.823L391.427 220.751Z" fill="#FFA40A"/>
<path d="M403.053 220.758L390.889 232.826L391.427 233.368L403.591 221.3L403.053 220.758Z" fill="#FFA40A"/>
<path d="M403.326 245.194H390.787V245.956H403.326V245.194Z" fill="#FFA40A"/>
<path d="M391.466 233.224L390.928 233.766L403.088 245.84L403.627 245.298L391.466 233.224Z" fill="#FFA40A"/>
<path d="M403.053 233.211L390.889 245.28L391.427 245.822L403.591 233.754L403.053 233.211Z" fill="#FFA40A"/>
<path d="M403.326 257.647H390.787V258.41H403.326V257.647Z" fill="#FFA40A"/>
<path d="M391.431 245.674L390.893 246.216L403.053 258.287L403.591 257.745L391.431 245.674Z" fill="#FFA40A"/>
<path d="M403.052 245.664L390.889 257.731L391.427 258.274L403.59 246.206L403.052 245.664Z" fill="#FFA40A"/>
<path d="M403.326 270.101H390.787V270.863H403.326V270.101Z" fill="#FFA40A"/>
<path d="M391.427 258.108L390.889 258.65L403.049 270.721L403.587 270.179L391.427 258.108Z" fill="#FFA40A"/>
<path d="M403.053 258.116L390.889 270.185L391.427 270.727L403.591 258.659L403.053 258.116Z" fill="#FFA40A"/>
<path d="M403.326 282.554H390.787V283.316H403.326V282.554Z" fill="#FFA40A"/>
<path d="M391.429 270.562L390.891 271.104L403.051 283.176L403.589 282.634L391.429 270.562Z" fill="#FFA40A"/>
<path d="M403.055 270.57L390.891 282.638L391.429 283.18L403.593 271.112L403.055 270.57Z" fill="#FFA40A"/>
<path d="M403.707 295.008H390.404V295.77H403.707V295.008Z" fill="#FFA40A"/>
<path d="M391.429 283.015L390.891 283.557L403.051 295.628L403.589 295.086L391.429 283.015Z" fill="#FFA40A"/>
<path d="M403.055 283.022L390.891 295.09L391.429 295.633L403.593 283.564L403.055 283.022Z" fill="#FFA40A"/>
<path d="M403.775 183.69H396.596V166.396H403.775V183.69ZM397.358 182.928H403.013V167.16H397.358V182.928Z" fill="#FFA40A"/>
<path d="M403.394 171.519H396.977V172.281H403.394V171.519Z" fill="#FFA40A"/>
<path d="M403.394 177.32H397.057V178.129H403.394V177.32Z" fill="#FFA40A"/>
<path d="M303.422 183.689H427.54V195.467H303.422V196.23H428.302V182.927H303.422V183.689Z" fill="#FFA40A"/>
<path d="M415.848 183.309H415.086V195.848H415.848V183.309Z" fill="#FFA40A"/>
<path d="M403.776 183.309H403.014V195.848H403.776V183.309Z" fill="#FFA40A"/>
<path d="M415.739 196.116L415.197 195.58L427.268 183.42L427.81 183.957L415.739 196.116Z" fill="#FFA40A"/>
<path d="M427.268 196.116L415.197 183.957L415.739 183.42L427.81 195.58L427.268 196.116Z" fill="#FFA40A"/>
<path d="M403.665 196.116L403.123 195.58L415.196 183.42L415.737 183.957L403.665 196.116Z" fill="#FFA40A"/>
<path d="M415.196 196.116L403.123 183.957L403.665 183.42L415.737 195.58L415.196 196.116Z" fill="#FFA40A"/>
<path d="M391.323 183.309H390.561V195.848H391.323V183.309Z" fill="#FFA40A"/>
<path d="M391.212 196.116L390.67 195.58L402.742 183.42L403.284 183.957L391.212 196.116Z" fill="#FFA40A"/>
<path d="M402.742 196.116L390.67 183.957L391.212 183.42L403.284 195.58L402.742 196.116Z" fill="#FFA40A"/>
<path d="M378.87 183.309H378.107V195.848H378.87V183.309Z" fill="#FFA40A"/>
<path d="M378.759 196.116L378.217 195.58L390.289 183.42L390.831 183.957L378.759 196.116Z" fill="#FFA40A"/>
<path d="M390.289 196.116L378.217 183.957L378.759 183.42L390.831 195.58L390.289 196.116Z" fill="#FFA40A"/>
<path d="M366.417 183.309H365.654V195.848H366.417V183.309Z" fill="#FFA40A"/>
<path d="M366.306 196.116L365.764 195.58L377.836 183.42L378.378 183.957L366.306 196.116Z" fill="#FFA40A"/>
<path d="M377.836 196.116L365.764 183.957L366.306 183.42L378.378 195.58L377.836 196.116Z" fill="#FFA40A"/>
<path d="M353.961 183.309H353.199V195.848H353.961V183.309Z" fill="#FFA40A"/>
<path d="M353.852 196.116L353.311 195.58L365.383 183.42L365.925 183.957L353.852 196.116Z" fill="#FFA40A"/>
<path d="M365.383 196.116L353.311 183.957L353.852 183.42L365.925 195.58L365.383 196.116Z" fill="#FFA40A"/>
<path d="M341.508 183.309H340.746V195.848H341.508V183.309Z" fill="#FFA40A"/>
<path d="M341.397 196.116L340.855 195.58L352.928 183.42L353.47 183.957L341.397 196.116Z" fill="#FFA40A"/>
<path d="M352.928 196.116L340.855 183.957L341.397 183.42L353.47 195.58L352.928 196.116Z" fill="#FFA40A"/>
<path d="M329.055 183.309H328.293V195.848H329.055V183.309Z" fill="#FFA40A"/>
<path d="M328.944 196.116L328.402 195.58L340.474 183.42L341.017 183.957L328.944 196.116Z" fill="#FFA40A"/>
<path d="M340.474 196.116L328.402 183.957L328.944 183.42L341.017 195.58L340.474 196.116Z" fill="#FFA40A"/>
<path d="M316.602 183.309H315.84V195.848H316.602V183.309Z" fill="#FFA40A"/>
<path d="M316.493 196.116L315.951 195.58L328.022 183.42L328.565 183.957L316.493 196.116Z" fill="#FFA40A"/>
<path d="M328.022 196.116L315.951 183.957L316.493 183.42L328.565 195.58L328.022 196.116Z" fill="#FFA40A"/>
<path d="M304.149 182.927H303.387V196.231H304.149V182.927Z" fill="#FFA40A"/>
<path d="M304.038 196.116L303.496 195.58L315.569 183.42L316.111 183.957L304.038 196.116Z" fill="#FFA40A"/>
<path d="M315.569 196.116L303.496 183.957L304.038 183.42L316.111 195.58L315.569 196.116Z" fill="#FFA40A"/>
<path d="M459.221 196.232H427.541V188.174L456.046 192.754L459.221 196.232ZM428.287 195.487H457.532L455.67 193.449L428.286 189.048L428.287 195.487Z" fill="#FFA40A"/>
<path d="M443.147 196.232C443.135 196.232 443.124 196.231 443.112 196.23C443.007 196.22 442.911 196.167 442.849 196.083L439.006 190.962L433.658 196.127C433.582 196.201 433.464 196.24 433.371 196.23C433.264 196.222 433.167 196.17 433.102 196.084L428.005 189.375C427.882 189.211 427.913 188.978 428.077 188.852C428.242 188.729 428.475 188.76 428.6 188.924L433.442 195.299L438.791 190.132C438.868 190.058 438.972 190.026 439.079 190.029C439.186 190.037 439.284 190.091 439.348 190.177L443.199 195.307L447.201 191.64C447.281 191.568 447.395 191.532 447.494 191.544C447.601 191.556 447.699 191.614 447.76 191.702L450.248 195.294L453.307 192.458C453.391 192.381 453.499 192.344 453.617 192.363C453.728 192.38 453.826 192.447 453.883 192.545L455.333 195.057L456.261 193.671C456.376 193.5 456.606 193.456 456.778 193.57C456.948 193.684 456.995 193.915 456.881 194.086L455.62 195.969C455.549 196.076 455.428 196.138 455.297 196.134C455.169 196.129 455.051 196.059 454.987 195.948L453.472 193.323L450.442 196.132C450.363 196.205 450.255 196.243 450.149 196.23C450.041 196.217 449.944 196.16 449.882 196.072L447.393 192.478L443.401 196.135C443.329 196.198 443.24 196.232 443.147 196.232Z" fill="#FFA40A"/>
<path d="M403.59 166.42L403.227 167.144L455.689 193.469L456.052 192.745L403.59 166.42Z" fill="#FFA40A"/>
<path d="M304.039 183.707L303.896 182.911L396.906 166.38L397.049 167.176L304.039 183.707Z" fill="#FFA40A"/>
<path d="M400.586 284.372L402.555 282.987C402.66 282.914 402.786 282.874 402.913 282.874H405.48C405.824 282.874 406.103 283.153 406.103 283.497V285.142C406.103 285.5 405.802 285.784 405.444 285.764L400.908 285.504C400.319 285.47 400.103 284.712 400.586 284.372Z" fill="#4A4146"/>
<path d="M414.156 300.219H406.322V306.069H414.156V300.219Z" fill="#646469"/>
<path d="M413.176 300.219V305.651H434.966V300.623L413.176 300.219Z" fill="#646469"/>
<path d="M421.498 306.932L425.565 301.478H442.132L444.015 304.204V305.897C444.015 306.468 443.551 306.932 442.979 306.932H421.498Z" fill="#FFA200"/>
<path d="M443.191 306.111V306.174C443.191 307.247 442.322 308.123 441.25 308.123H410.639C409.567 308.123 408.697 307.247 408.697 306.174V306.111C408.697 306.029 408.703 305.946 408.716 305.87C408.83 304.912 409.65 304.169 410.639 304.169H441.25C442.24 304.169 443.058 304.912 443.172 305.87C443.185 305.946 443.191 306.028 443.191 306.111Z" fill="#FFA40A"/>
<path d="M411.528 306.365V308.123H393.661C392.404 308.123 391.388 307.121 391.363 305.87V302.988C391.363 302.429 391.528 301.909 391.814 301.477C392.303 300.722 393.159 300.221 394.13 300.221H405.384C406.787 300.221 408.075 300.69 409.109 301.477C409.725 301.947 410.252 302.537 410.651 303.197C410.835 303.502 410.994 303.825 411.121 304.168C411.331 304.701 411.464 305.272 411.509 305.869C411.522 306.035 411.528 306.2 411.528 306.365Z" fill="#FFA40A"/>
<path d="M443.191 306.111V306.174C443.191 307.247 442.322 308.123 441.25 308.123H393.661C392.404 308.123 391.388 307.121 391.363 305.87H443.172C443.185 305.946 443.191 306.028 443.191 306.111Z" fill="#4A4146"/>
<path d="M410.651 303.198H391.363V302.988C391.363 302.43 391.528 301.909 391.814 301.478H409.109C409.724 301.947 410.252 302.538 410.651 303.198Z" fill="#FFAF24"/>
<path d="M433.453 306.932C433.453 309.58 431.307 311.726 428.659 311.726C426.011 311.726 423.865 309.58 423.865 306.932C423.865 304.284 426.011 302.138 428.659 302.138C431.307 302.137 433.453 304.284 433.453 306.932Z" fill="#646469"/>
<path d="M431.004 306.932C431.004 308.227 429.955 309.276 428.66 309.276C427.366 309.276 426.316 308.227 426.316 306.932C426.316 305.638 427.366 304.588 428.66 304.588C429.955 304.588 431.004 305.638 431.004 306.932Z" fill="#4A4146"/>
<path d="M429.909 306.932C429.909 307.623 429.348 308.183 428.658 308.183C427.968 308.183 427.408 307.622 427.408 306.932C427.408 306.242 427.968 305.682 428.658 305.682C429.348 305.682 429.909 306.241 429.909 306.932Z" fill="#C28101"/>
<path d="M443.354 306.932C443.354 309.58 441.207 311.726 438.56 311.726C435.912 311.726 433.766 309.58 433.766 306.932C433.766 304.284 435.912 302.138 438.56 302.138C441.207 302.137 443.354 304.284 443.354 306.932Z" fill="#646469"/>
<path d="M440.904 306.932C440.904 308.227 439.855 309.276 438.561 309.276C437.266 309.276 436.217 308.227 436.217 306.932C436.217 305.638 437.266 304.588 438.561 304.588C439.855 304.588 440.904 305.638 440.904 306.932Z" fill="#4A4146"/>
<path d="M439.809 306.932C439.809 307.623 439.249 308.183 438.559 308.183C437.869 308.183 437.309 307.622 437.309 306.932C437.309 306.242 437.869 305.682 438.559 305.682C439.249 305.682 439.809 306.241 439.809 306.932Z" fill="#C28101"/>
<path d="M444.891 305.873C444.585 305.873 444.284 305.726 444.1 305.452L442.063 302.43H425.625L423.342 305.49C423.026 305.912 422.43 305.998 422.009 305.683C421.588 305.37 421.502 304.772 421.816 304.351L424.385 300.908C424.565 300.668 424.847 300.526 425.148 300.526H442.57C442.887 300.526 443.182 300.683 443.359 300.946L445.68 304.389C445.974 304.825 445.858 305.417 445.422 305.711C445.259 305.82 445.074 305.873 444.891 305.873Z" fill="#4A4146"/>
<path d="M409.426 287.744V297.988C409.426 299.695 408.042 301.079 406.329 301.079H393.502C391.877 301.079 390.544 299.828 390.417 298.242C390.411 298.159 390.404 298.071 390.404 297.988V295.233C390.404 294.751 390.518 294.275 390.741 293.837L390.938 293.444L394.238 286.906L394.34 286.703C394.847 285.7 395.857 285.053 396.98 285.008L402.87 284.78L406.215 284.653C407.966 284.589 409.426 285.992 409.426 287.744Z" fill="#FFA200"/>
<path d="M403.999 289.165C403.999 294.471 399.423 298.774 393.781 298.774C392.601 298.774 391.471 298.584 390.417 298.241C390.411 298.159 390.404 298.07 390.404 297.988V295.233C390.404 294.751 390.518 294.275 390.741 293.837L390.938 293.444L394.238 286.906L394.34 286.703C394.847 285.7 395.857 285.053 396.98 285.008L402.87 284.78C403.593 286.093 403.999 287.585 403.999 289.165Z" fill="#FFAF24"/>
<path d="M403.117 289.286V291.297C403.117 292.611 402.051 293.671 400.737 293.671H391.959C391.591 293.671 391.248 293.588 390.938 293.442L391.248 292.833L393.889 287.596L394.237 286.905H400.737C402.051 286.905 403.117 287.972 403.117 289.286Z" fill="#4A4146"/>
<path d="M401.448 288.968V291.595C401.448 292.16 400.94 292.617 400.317 292.617H392.948C392.784 292.617 392.625 292.605 392.473 292.567L395.037 287.94H400.311C400.686 287.94 401.022 288.105 401.219 288.365C401.365 288.537 401.448 288.746 401.448 288.968Z" fill="#0086FB"/>
<path d="M398.623 287.94L395.12 292.617H393.66L397.227 287.94H398.623Z" fill="white"/>
<path d="M401.22 288.365L398.034 292.617H396.574L400.141 287.94H400.313C400.687 287.94 401.023 288.105 401.22 288.365Z" fill="white"/>
<path d="M403.117 294.708H398.361V295.563H403.117V294.708Z" fill="#FFAF24"/>
<path d="M407.04 294.771H405.168V295.731H407.04V294.771Z" fill="#FFAF24"/>
<path d="M407.04 287.541H405.168V288.643H407.04V287.541Z" fill="#FFAF24"/>
<path d="M407.04 293.353H405.168V294.313H407.04V293.353Z" fill="#FFAF24"/>
<path d="M407.04 291.935H405.168V292.896H407.04V291.935Z" fill="#FFAF24"/>
<path d="M407.04 290.517H405.168V291.477H407.04V290.517Z" fill="#FFAF24"/>
<path d="M407.04 289.1H405.168V290.06H407.04V289.1Z" fill="#FFAF24"/>
<path d="M407.039 297.396H393.078V298.14H407.039V297.396Z" fill="#FFAF24"/>
<path d="M407.039 298.587H393.078V298.961H407.039V298.587Z" fill="#FFAF24"/>
<path d="M405.168 306.932C405.168 309.58 403.022 311.726 400.374 311.726C397.726 311.726 395.58 309.58 395.58 306.932C395.58 304.284 397.726 302.138 400.374 302.138C403.022 302.137 405.168 304.284 405.168 306.932Z" fill="#646469"/>
<path d="M402.719 306.932C402.719 308.226 401.669 309.276 400.375 309.276C399.081 309.276 398.031 308.226 398.031 306.932C398.031 305.638 399.081 304.588 400.375 304.588C401.669 304.588 402.719 305.638 402.719 306.932Z" fill="#4A4146"/>
<path d="M401.623 306.932C401.623 307.623 401.064 308.182 400.373 308.182C399.682 308.182 399.123 307.622 399.123 306.932C399.123 306.242 399.683 305.682 400.373 305.682C401.064 305.682 401.623 306.241 401.623 306.932Z" fill="#C28101"/>
<path d="M406.088 307.884C405.562 307.884 405.136 307.457 405.136 306.931C405.136 304.306 403 302.169 400.374 302.169C397.748 302.169 395.612 304.306 395.612 306.931C395.612 307.457 395.185 307.884 394.659 307.884C394.133 307.884 393.707 307.457 393.707 306.931C393.707 303.256 396.698 300.265 400.373 300.265C404.048 300.265 407.039 303.256 407.039 306.931C407.04 307.457 406.613 307.884 406.088 307.884Z" fill="#4A4146"/>
<path d="M273.385 191.347C259.12 191.347 247.396 202.214 246.029 216.12H300.742C299.375 202.214 287.651 191.347 273.385 191.347Z" fill="#9A999E"/>
<path d="M246.03 216.12C245.942 217.016 245.893 217.922 245.893 218.84V313.525H262.146V294.679H283.025V313.525H300.88V218.841C300.88 217.923 300.831 217.016 300.743 216.121H246.03V216.12ZM259.366 304.2H249.846V294.68H259.366V304.2ZM259.366 289.942H249.846V280.422H259.366V289.942ZM259.366 275.685H249.846V266.165H259.366V275.685ZM259.366 261.427H249.846V251.907H259.366V261.427ZM271.666 289.942H262.146V280.422H271.666V289.942ZM271.666 275.685H262.146V266.165H271.666V275.685ZM271.666 261.427H262.146V251.907H271.666V261.427ZM283.966 289.942H274.447V280.422H283.966V289.942ZM283.966 275.685H274.447V266.165H283.966V275.685ZM283.966 261.427H274.447V251.907H283.966V261.427ZM296.267 304.2H286.746V294.68H296.266V304.2H296.267ZM296.267 289.942H286.746V280.422H296.266V289.942H296.267ZM296.267 275.685H286.746V266.165H296.266V275.685H296.267ZM296.267 261.427H286.746V251.907H296.266V261.427H296.267Z" fill="#CCCBD3"/>
<path d="M259.365 251.907H249.846V261.427H259.365V251.907Z" fill="#9A999E"/>
<path d="M271.666 251.907H262.146V261.427H271.666V251.907Z" fill="#9A999E"/>
<path d="M283.967 251.907H274.447V261.427H283.967V251.907Z" fill="#9A999E"/>
<path d="M296.266 251.907H286.746V261.427H296.266V251.907Z" fill="#9A999E"/>
<path d="M259.365 266.165H249.846V275.685H259.365V266.165Z" fill="#9A999E"/>
<path d="M271.666 266.165H262.146V275.685H271.666V266.165Z" fill="#9A999E"/>
<path d="M283.967 266.165H274.447V275.685H283.967V266.165Z" fill="#9A999E"/>
<path d="M296.266 266.165H286.746V275.685H296.266V266.165Z" fill="#9A999E"/>
<path d="M259.365 280.422H249.846V289.942H259.365V280.422Z" fill="#9A999E"/>
<path d="M271.666 280.422H262.146V289.942H271.666V280.422Z" fill="#9A999E"/>
<path d="M283.967 280.422H274.447V289.942H283.967V280.422Z" fill="#9A999E"/>
<path d="M296.266 280.422H286.746V289.942H296.266V280.422Z" fill="#9A999E"/>
<path d="M259.365 294.679H249.846V304.199H259.365V294.679Z" fill="#9A999E"/>
<path d="M283.025 294.679H262.146V313.525H283.025V294.679Z" fill="#9A999E"/>
<path d="M296.266 294.679H286.746V304.199H296.266V294.679Z" fill="#9A999E"/>
<path d="M459.28 252.482H443.898V314.071H459.28V252.482Z" fill="#9A999E"/>
<path d="M459.277 256.343H443.896V259.678H459.277V256.343Z" fill="#CCCBD3"/>
<path d="M459.277 264.082H443.896V269.693H459.277V264.082Z" fill="#CCCBD3"/>
<path d="M459.277 274.853H443.896V278.193H459.277V274.853Z" fill="#CCCBD3"/>
<path d="M459.277 282.594H443.896V288.21H459.277V282.594Z" fill="#CCCBD3"/>
<path d="M459.277 293.37H443.896V296.71H459.277V293.37Z" fill="#CCCBD3"/>
<path d="M459.277 301.11H443.896V306.726H459.277V301.11Z" fill="#CCCBD3"/>
<path d="M452.586 252.482H450.594V314.071H452.586V252.482Z" fill="white"/>
<path d="M459.28 195.219H443.898V256.808H459.28V195.219Z" fill="#9A999E"/>
<path d="M459.277 199.08H443.896V202.415H459.277V199.08Z" fill="#CCCBD3"/>
<path d="M459.277 206.819H443.896V212.43H459.277V206.819Z" fill="#CCCBD3"/>
<path d="M459.277 217.59H443.896V220.93H459.277V217.59Z" fill="#CCCBD3"/>
<path d="M459.277 225.33H443.896V230.946H459.277V225.33Z" fill="#CCCBD3"/>
<path d="M459.277 236.107H443.896V239.447H459.277V236.107Z" fill="#CCCBD3"/>
<path d="M459.277 243.847H443.896V249.463H459.277V243.847Z" fill="#CCCBD3"/>
<path d="M452.586 195.219H450.594V256.808H452.586V195.219Z" fill="white"/>
<path d="M346.066 205.388V230.639" stroke="#9A999E" stroke-width="1.7949" stroke-miterlimit="10"/>
<path d="M342.039 205.388V230.639" stroke="#9A999E" stroke-width="1.7949" stroke-miterlimit="10"/>
<path d="M338.012 205.388V230.639" stroke="#9A999E" stroke-width="1.7949" stroke-miterlimit="10"/>
<path d="M333.984 205.388V230.639" stroke="#9A999E" stroke-width="1.7949" stroke-miterlimit="10"/>
<path d="M329.957 205.388V230.639" stroke="#9A999E" stroke-width="1.7949" stroke-miterlimit="10"/>
<path d="M325.93 205.388V230.639" stroke="#9A999E" stroke-width="1.7949" stroke-miterlimit="10"/>
<path d="M351.44 227.764H319.318V313.526H351.44V227.764Z" fill="#B1B1B8"/>
<path d="M327.188 230.241H321.627V236.924H327.188V230.241Z" fill="#9A999E"/>
<path d="M334.373 230.241H328.812V236.924H334.373V230.241Z" fill="#9A999E"/>
<path d="M341.559 230.241H335.998V236.924H341.559V230.241Z" fill="#9A999E"/>
<path d="M348.745 230.241H343.184V236.924H348.745V230.241Z" fill="#9A999E"/>
<path d="M327.188 240.25H321.627V246.932H327.188V240.25Z" fill="#9A999E"/>
<path d="M334.373 240.25H328.812V246.932H334.373V240.25Z" fill="#9A999E"/>
<path d="M341.559 240.25H335.998V246.932H341.559V240.25Z" fill="#9A999E"/>
<path d="M348.745 240.25H343.184V246.932H348.745V240.25Z" fill="#9A999E"/>
<path d="M327.188 250.257H321.627V256.94H327.188V250.257Z" fill="#9A999E"/>
<path d="M334.373 250.257H328.812V256.94H334.373V250.257Z" fill="#9A999E"/>
<path d="M341.559 250.257H335.998V256.94H341.559V250.257Z" fill="#9A999E"/>
<path d="M348.745 250.257H343.184V256.94H348.745V250.257Z" fill="#9A999E"/>
<path d="M327.188 260.265H321.627V266.948H327.188V260.265Z" fill="#9A999E"/>
<path d="M334.373 260.265H328.812V266.948H334.373V260.265Z" fill="#9A999E"/>
<path d="M341.559 260.265H335.998V266.948H341.559V260.265Z" fill="#9A999E"/>
<path d="M348.745 260.265H343.184V266.948H348.745V260.265Z" fill="#9A999E"/>
<path d="M327.188 270.273H321.627V276.956H327.188V270.273Z" fill="#9A999E"/>
<path d="M334.373 270.273H328.812V276.956H334.373V270.273Z" fill="#9A999E"/>
<path d="M341.559 270.273H335.998V276.956H341.559V270.273Z" fill="#9A999E"/>
<path d="M348.745 270.273H343.184V276.956H348.745V270.273Z" fill="#9A999E"/>
<path d="M327.188 280.281H321.627V286.964H327.188V280.281Z" fill="#9A999E"/>
<path d="M334.373 280.281H328.812V286.964H334.373V280.281Z" fill="#9A999E"/>
<path d="M341.559 280.281H335.998V286.964H341.559V280.281Z" fill="#9A999E"/>
<path d="M348.745 280.281H343.184V286.964H348.745V280.281Z" fill="#9A999E"/>
<path d="M327.188 290.289H321.627V296.971H327.188V290.289Z" fill="#9A999E"/>
<path d="M334.373 290.289H328.812V296.971H334.373V290.289Z" fill="#9A999E"/>
<path d="M341.559 290.289H335.998V296.971H341.559V290.289Z" fill="#9A999E"/>
<path d="M348.745 290.289H343.184V296.971H348.745V290.289Z" fill="#9A999E"/>
<path d="M327.188 300.297H321.627V306.98H327.188V300.297Z" fill="#9A999E"/>
<path d="M341.009 300.297H328.812V313.526H341.009V300.297Z" fill="#9A999E"/>
<path d="M348.745 300.297H343.184V306.98H348.745V300.297Z" fill="#9A999E"/>
<path d="M227.721 312.473H138.168C138.787 311.722 139.34 311.091 139.639 310.704C141.529 308.315 143.697 306.137 146.306 304.534C146.394 304.479 146.472 304.435 146.561 304.391C150.431 302.08 154.986 301.085 158.757 298.63C158.879 298.553 159 298.475 159.111 298.397C162.218 296.263 164.629 293.278 167.261 290.547C167.394 290.392 167.537 290.248 167.681 290.104C167.825 289.961 167.968 289.806 168.112 289.662C170.921 286.898 174.304 284.443 178.196 284.1C181.359 283.824 184.466 284.974 187.275 286.456C188.933 287.34 190.503 288.335 192.041 289.397C192.693 289.85 193.345 290.326 193.987 290.801C195.888 292.216 197.747 293.72 199.615 295.202C200.721 296.076 201.826 296.938 202.954 297.779C203.994 298.553 205.044 299.305 206.117 300.023C206.913 300.554 207.72 301.063 208.549 301.549C212.375 303.849 216.422 305.806 220.348 307.951C222.889 309.333 225.366 310.793 227.721 312.473Z" fill="#BBBAC2"/>
<path opacity="0.57" d="M208.548 301.548C206.159 302.698 203.705 303.726 201.151 304.456C194.339 306.391 187.119 306.126 180.12 307.187C173.386 308.216 166.641 310.493 159.907 309.465C155.738 308.824 151.879 306.944 148.087 305.087C147.6 304.854 147.092 304.622 146.561 304.39C150.43 302.079 154.986 301.084 158.757 298.629C158.879 298.552 159 298.474 159.111 298.397C162.218 296.262 164.629 293.277 167.261 290.546C167.394 290.391 167.537 290.247 167.681 290.103C167.825 289.96 167.968 289.805 168.112 289.661C170.921 286.897 174.304 284.442 178.196 284.099C181.359 283.823 184.466 284.973 187.275 286.455C188.933 287.339 190.503 288.334 192.04 289.396C192.693 289.849 193.345 290.325 193.987 290.8C195.888 292.215 197.747 293.719 199.615 295.201C200.72 296.075 201.826 296.937 202.954 297.778C203.994 298.552 205.044 299.304 206.116 300.022C206.911 300.553 207.718 301.062 208.548 301.548Z" fill="#A1A0A6"/>
<path d="M202.952 297.778C202.267 297.811 201.581 297.877 200.896 297.966C196.793 298.507 192.868 299.945 188.821 300.785C183.049 301.991 177.034 301.957 171.284 300.708C168.133 300.022 165.069 298.972 161.885 298.518C160.912 298.385 159.994 298.352 159.109 298.397C162.216 296.262 164.627 293.277 167.259 290.546C167.392 290.391 167.535 290.247 167.679 290.103C167.823 289.96 167.966 289.805 168.11 289.661C170.919 286.897 174.303 284.442 178.194 284.099C181.357 283.823 184.464 284.973 187.273 286.455C188.931 287.339 190.501 288.334 192.039 289.396C192.691 289.849 193.344 290.325 193.985 290.8C195.887 292.215 197.745 293.719 199.613 295.201C200.719 296.075 201.824 296.937 202.952 297.778Z" fill="#ABAAB0"/>
<path d="M169.743 312.858H80.1895C80.8089 312.106 81.3614 311.476 81.6601 311.089C83.5509 308.7 85.7177 306.522 88.3275 304.919C88.4157 304.864 88.4932 304.819 88.5821 304.775C92.4521 302.464 97.0083 301.469 100.779 299.015C100.9 298.937 101.022 298.86 101.133 298.782C104.24 296.648 106.65 293.663 109.282 290.931C109.415 290.776 109.559 290.633 109.703 290.489C109.846 290.345 109.99 290.19 110.134 290.047C112.942 287.282 116.326 284.828 120.219 284.485C123.381 284.208 126.488 285.358 129.297 286.84C130.955 287.725 132.526 288.72 134.063 289.781C134.715 290.235 135.368 290.71 136.009 291.186C137.911 292.601 139.769 294.105 141.638 295.587C142.744 296.46 143.849 297.323 144.977 298.163C146.017 298.938 147.067 299.689 148.14 300.408C148.936 300.939 149.743 301.448 150.572 301.935C154.398 304.234 158.445 306.191 162.371 308.337C164.91 309.718 167.387 311.178 169.743 312.858Z" fill="#BEBDC4"/>
<path opacity="0.57" d="M150.569 301.933C148.18 303.083 145.726 304.111 143.172 304.84C136.361 306.775 129.14 306.51 122.141 307.572C115.408 308.6 108.663 310.878 101.928 309.85C97.7598 309.208 93.9005 307.329 90.1081 305.471C89.6217 305.239 89.1133 305.007 88.582 304.774C92.452 302.463 97.0082 301.468 100.779 299.014C100.9 298.936 101.022 298.859 101.133 298.781C104.24 296.647 106.65 293.662 109.282 290.93C109.415 290.775 109.559 290.632 109.702 290.488C109.846 290.344 109.99 290.189 110.134 290.046C112.942 287.281 116.326 284.827 120.219 284.484C123.381 284.207 126.488 285.357 129.297 286.839C130.955 287.724 132.526 288.719 134.063 289.78C134.715 290.234 135.368 290.709 136.009 291.185C137.911 292.6 139.769 294.104 141.638 295.586C142.743 296.459 143.849 297.322 144.977 298.162C146.017 298.937 147.067 299.688 148.139 300.407C148.932 300.938 149.74 301.446 150.569 301.933Z" fill="#BEBDC4"/>
<path d="M144.974 298.162C144.288 298.196 143.603 298.262 142.917 298.35C138.815 298.892 134.889 300.329 130.842 301.17C125.07 302.375 119.055 302.342 113.305 301.092C110.154 300.407 107.092 299.356 103.906 298.903C102.934 298.77 102.015 298.737 101.131 298.781C104.238 296.647 106.648 293.662 109.28 290.93C109.413 290.775 109.557 290.632 109.701 290.488C109.844 290.344 109.988 290.189 110.132 290.046C112.941 287.281 116.324 284.827 120.217 284.484C123.379 284.207 126.486 285.357 129.295 286.839C130.953 287.724 132.524 288.719 134.061 289.78C134.713 290.234 135.366 290.709 136.007 291.185C137.91 292.6 139.767 294.104 141.636 295.586C142.74 296.46 143.846 297.322 144.974 298.162Z" fill="#BEBDC4"/>
<path d="M167.609 312.382H182.799V306.98H167.609V312.382Z" fill="#8B8A8F"/>
<path d="M176.129 310.788H181.832C181.921 310.788 181.994 310.716 181.994 310.627V308.736C181.994 308.647 181.921 308.574 181.832 308.574H176.129C176.04 308.574 175.967 308.647 175.967 308.736V310.627C175.967 310.715 176.039 310.788 176.129 310.788Z" fill="#D7D6DE"/>
<path d="M168.63 310.788H174.99C175.109 310.788 175.204 310.693 175.204 310.574V308.788C175.204 308.67 175.109 308.574 174.99 308.574H168.63C168.512 308.574 168.416 308.669 168.416 308.788V310.574C168.416 310.693 168.512 310.788 168.63 310.788Z" fill="#D7D6DE"/>
<path d="M167.609 307.07H182.799V301.668H167.609V307.07Z" fill="#ABAAB0"/>
<path d="M176.129 305.476H181.832C181.921 305.476 181.994 305.404 181.994 305.315V303.424C181.994 303.335 181.921 303.263 181.832 303.263H176.129C176.04 303.263 175.967 303.335 175.967 303.424V305.315C175.967 305.404 176.039 305.476 176.129 305.476Z" fill="#D7D6DE"/>
<path d="M168.63 305.476H174.99C175.109 305.476 175.204 305.38 175.204 305.262V303.476C175.204 303.358 175.109 303.263 174.99 303.263H168.63C168.512 303.263 168.416 303.358 168.416 303.476V305.262C168.416 305.38 168.512 305.476 168.63 305.476Z" fill="#D7D6DE"/>
<path d="M167.609 301.981H182.799V296.579H167.609V301.981Z" fill="#C8C7CF"/>
<path d="M176.129 300.387H181.832C181.921 300.387 181.994 300.315 181.994 300.226V298.335C181.994 298.247 181.921 298.174 181.832 298.174H176.129C176.04 298.174 175.967 298.246 175.967 298.335V300.226C175.967 300.314 176.039 300.387 176.129 300.387Z" fill="#ABAAB0"/>
<path d="M168.63 300.387H174.99C175.109 300.387 175.204 300.292 175.204 300.173V298.387C175.204 298.269 175.109 298.173 174.99 298.173H168.63C168.512 298.173 168.416 298.269 168.416 298.387V300.173C168.416 300.292 168.512 300.387 168.63 300.387Z" fill="#ABAAB0"/>
<path d="M167.609 296.669H182.799V291.267H167.609V296.669Z" fill="#8B8A8F"/>
<path d="M176.129 295.075H181.832C181.921 295.075 181.994 295.003 181.994 294.914V293.023C181.994 292.934 181.921 292.861 181.832 292.861H176.129C176.04 292.861 175.967 292.934 175.967 293.023V294.914C175.967 295.003 176.039 295.075 176.129 295.075Z" fill="#D7D6DE"/>
<path d="M168.63 295.075H174.99C175.109 295.075 175.204 294.979 175.204 294.862V293.076C175.204 292.958 175.109 292.862 174.99 292.862H168.63C168.512 292.862 168.416 292.958 168.416 293.076V294.862C168.416 294.979 168.512 295.075 168.63 295.075Z" fill="#D7D6DE"/>
<path d="M164.023 288.503H111.287V312.288H164.023V288.503Z" fill="#FFA40A"/>
<path d="M119.991 288.503L116.856 295.153L111.92 305.638L111.287 306.977V296.854L112.089 295.153L115.216 288.503H119.991Z" fill="#646469"/>
<path d="M130.322 288.507L119.125 312.292H114.357L125.555 288.507H130.322Z" fill="#646469"/>
<path d="M140.658 288.507L129.461 312.292H124.693L135.89 288.507H140.658Z" fill="#646469"/>
<path d="M150.996 288.507L139.799 312.292H135.031L146.228 288.507H150.996Z" fill="#646469"/>
<path d="M161.332 288.507L150.135 312.292H145.367L156.564 288.507H161.332Z" fill="#646469"/>
<path d="M164.023 294.617V304.74L163.605 305.638L160.47 312.288H155.695L158.83 305.638L163.773 295.153L164.023 294.617Z" fill="#646469"/>
<path d="M164.023 293.818H111.287V306.973H164.023V293.818Z" fill="#FFA40A"/>
<path d="M115.201 304.112C114.691 304.112 114.302 303.968 114.035 303.682C113.767 303.388 113.633 302.971 113.633 302.429V297.324H114.685V302.506C114.685 302.735 114.729 302.901 114.818 303.003C114.914 303.105 115.048 303.156 115.22 303.156C115.392 303.156 115.523 303.105 115.612 303.003C115.708 302.901 115.755 302.735 115.755 302.506V297.324H116.769V302.429C116.769 302.971 116.635 303.388 116.367 303.682C116.099 303.968 115.711 304.112 115.201 304.112ZM117.518 297.324H118.837L119.86 301.33H119.879V297.324H120.816V304.016H119.736L118.474 299.131H118.455V304.016H117.518V297.324ZM121.597 297.324H123.204C123.726 297.324 124.118 297.464 124.379 297.745C124.641 298.025 124.771 298.436 124.771 298.978V302.362C124.771 302.904 124.641 303.315 124.379 303.595C124.118 303.876 123.726 304.016 123.204 304.016H121.597V297.324ZM123.184 303.06C123.357 303.06 123.487 303.009 123.576 302.907C123.672 302.805 123.72 302.639 123.72 302.41V298.93C123.72 298.701 123.672 298.535 123.576 298.433C123.487 298.331 123.357 298.28 123.184 298.28H122.649V303.06H123.184ZM125.481 297.324H128.349V298.28H126.533V300.049H127.976V301.005H126.533V303.06H128.349V304.016H125.481V297.324ZM128.954 297.324H130.512C131.054 297.324 131.449 297.452 131.698 297.707C131.946 297.955 132.071 298.341 132.071 298.863V299.274C132.071 299.969 131.841 300.409 131.382 300.594V300.613C131.637 300.689 131.816 300.845 131.918 301.081C132.026 301.317 132.08 301.632 132.08 302.028V303.204C132.08 303.395 132.087 303.551 132.099 303.672C132.112 303.787 132.144 303.901 132.195 304.016H131.124C131.086 303.908 131.061 303.806 131.048 303.71C131.035 303.615 131.029 303.443 131.029 303.194V301.97C131.029 301.664 130.978 301.451 130.876 301.33C130.78 301.209 130.611 301.148 130.369 301.148H130.006V304.016H128.954V297.324ZM130.388 300.192C130.599 300.192 130.755 300.138 130.857 300.03C130.965 299.921 131.019 299.74 131.019 299.485V298.968C131.019 298.726 130.975 298.551 130.885 298.443C130.802 298.334 130.669 298.28 130.484 298.28H130.006V300.192H130.388ZM134.292 304.112C133.788 304.112 133.403 303.968 133.135 303.682C132.874 303.395 132.743 302.99 132.743 302.467V298.873C132.743 298.35 132.874 297.946 133.135 297.659C133.403 297.372 133.788 297.229 134.292 297.229C134.795 297.229 135.178 297.372 135.439 297.659C135.707 297.946 135.84 298.35 135.84 298.873V299.58H134.846V298.806C134.846 298.392 134.671 298.185 134.32 298.185C133.97 298.185 133.795 298.392 133.795 298.806V302.544C133.795 302.952 133.97 303.156 134.32 303.156C134.671 303.156 134.846 302.952 134.846 302.544V301.521H135.84V302.467C135.84 302.99 135.707 303.395 135.439 303.682C135.178 303.968 134.795 304.112 134.292 304.112ZM138.008 304.112C137.492 304.112 137.097 303.965 136.823 303.672C136.549 303.379 136.412 302.965 136.412 302.429V298.911C136.412 298.376 136.549 297.961 136.823 297.668C137.097 297.375 137.492 297.229 138.008 297.229C138.525 297.229 138.92 297.375 139.194 297.668C139.468 297.961 139.605 298.376 139.605 298.911V302.429C139.605 302.965 139.468 303.379 139.194 303.672C138.92 303.965 138.525 304.112 138.008 304.112ZM138.008 303.156C138.372 303.156 138.553 302.936 138.553 302.496V298.844C138.553 298.404 138.372 298.185 138.008 298.185C137.645 298.185 137.463 298.404 137.463 298.844V302.496C137.463 302.936 137.645 303.156 138.008 303.156ZM140.316 297.324H141.635L142.658 301.33H142.677V297.324H143.614V304.016H142.534L141.272 299.131H141.253V304.016H140.316V297.324ZM145.763 304.112C145.253 304.112 144.867 303.968 144.606 303.682C144.345 303.388 144.214 302.971 144.214 302.429V302.047H145.208V302.506C145.208 302.939 145.39 303.156 145.753 303.156C145.932 303.156 146.066 303.105 146.155 303.003C146.25 302.894 146.298 302.722 146.298 302.487C146.298 302.206 146.235 301.961 146.107 301.75C145.98 301.534 145.744 301.276 145.4 300.976C144.966 300.594 144.664 300.249 144.491 299.944C144.319 299.631 144.233 299.281 144.233 298.892C144.233 298.363 144.367 297.955 144.635 297.668C144.903 297.375 145.291 297.229 145.801 297.229C146.305 297.229 146.684 297.375 146.939 297.668C147.2 297.955 147.331 298.369 147.331 298.911V299.188H146.337V298.844C146.337 298.615 146.292 298.449 146.203 298.347C146.113 298.239 145.983 298.185 145.811 298.185C145.46 298.185 145.285 298.398 145.285 298.825C145.285 299.067 145.349 299.293 145.476 299.504C145.61 299.714 145.849 299.969 146.193 300.269C146.633 300.651 146.936 300.998 147.101 301.311C147.267 301.623 147.35 301.989 147.35 302.41C147.35 302.958 147.213 303.379 146.939 303.672C146.671 303.965 146.279 304.112 145.763 304.112ZM148.775 298.28H147.676V297.324H150.926V298.28H149.827V304.016H148.775V298.28ZM151.435 297.324H152.993C153.535 297.324 153.93 297.452 154.179 297.707C154.427 297.955 154.552 298.341 154.552 298.863V299.274C154.552 299.969 154.322 300.409 153.863 300.594V300.613C154.118 300.689 154.297 300.845 154.399 301.081C154.507 301.317 154.561 301.632 154.561 302.028V303.204C154.561 303.395 154.568 303.551 154.58 303.672C154.593 303.787 154.625 303.901 154.676 304.016H153.605C153.567 303.908 153.542 303.806 153.529 303.71C153.516 303.615 153.51 303.443 153.51 303.194V301.97C153.51 301.664 153.459 301.451 153.357 301.33C153.261 301.209 153.092 301.148 152.85 301.148H152.487V304.016H151.435V297.324ZM152.869 300.192C153.079 300.192 153.236 300.138 153.338 300.03C153.446 299.921 153.5 299.74 153.5 299.485V298.968C153.5 298.726 153.455 298.551 153.366 298.443C153.283 298.334 153.15 298.28 152.965 298.28H152.487V300.192H152.869ZM156.82 304.112C156.311 304.112 155.922 303.968 155.654 303.682C155.386 303.388 155.253 302.971 155.253 302.429V297.324H156.304V302.506C156.304 302.735 156.349 302.901 156.438 303.003C156.534 303.105 156.668 303.156 156.84 303.156C157.012 303.156 157.142 303.105 157.232 303.003C157.327 302.901 157.375 302.735 157.375 302.506V297.324H158.388V302.429C158.388 302.971 158.254 303.388 157.987 303.682C157.719 303.968 157.33 304.112 156.82 304.112ZM115.153 315.112C114.65 315.112 114.264 314.968 113.996 314.682C113.735 314.395 113.604 313.99 113.604 313.467V309.873C113.604 309.35 113.735 308.946 113.996 308.659C114.264 308.372 114.65 308.229 115.153 308.229C115.657 308.229 116.039 308.372 116.3 308.659C116.568 308.946 116.702 309.35 116.702 309.873V310.58H115.708V309.806C115.708 309.392 115.532 309.185 115.182 309.185C114.831 309.185 114.656 309.392 114.656 309.806V313.544C114.656 313.952 114.831 314.156 115.182 314.156C115.532 314.156 115.708 313.952 115.708 313.544V312.521H116.702V313.467C116.702 313.99 116.568 314.395 116.3 314.682C116.039 314.968 115.657 315.112 115.153 315.112ZM118.153 309.28H117.054V308.324H120.304V309.28H119.205V315.016H118.153V309.28ZM120.813 308.324H121.865V315.016H120.813V308.324ZM124.172 315.112C123.656 315.112 123.261 314.965 122.987 314.672C122.713 314.379 122.576 313.965 122.576 313.429V309.911C122.576 309.376 122.713 308.961 122.987 308.668C123.261 308.375 123.656 308.229 124.172 308.229C124.689 308.229 125.084 308.375 125.358 308.668C125.632 308.961 125.769 309.376 125.769 309.911V313.429C125.769 313.965 125.632 314.379 125.358 314.672C125.084 314.965 124.689 315.112 124.172 315.112ZM124.172 314.156C124.536 314.156 124.717 313.936 124.717 313.496V309.844C124.717 309.404 124.536 309.185 124.172 309.185C123.809 309.185 123.628 309.404 123.628 309.844V313.496C123.628 313.936 123.809 314.156 124.172 314.156ZM126.48 308.324H127.799L128.822 312.33H128.841V308.324H129.778V315.016H128.698L127.436 310.131H127.417V315.016H126.48V308.324Z" fill="#646469"/>
<path d="M490.522 318.751H80.6467C78.6524 318.751 77.0352 317.178 77.0352 315.238C77.0352 313.298 78.6524 311.726 80.6467 311.726H490.522C492.517 311.726 494.134 313.299 494.134 315.238C494.134 317.179 492.517 318.751 490.522 318.751Z" fill="#D7D6DE"/>
<path d="M438.742 267.798L437.231 267.856C434.334 267.966 431.898 265.707 431.788 262.811L431.42 253.126C431.31 250.229 433.568 247.792 436.465 247.682L437.976 247.625C440.873 247.515 443.31 249.773 443.42 252.67L443.787 262.355C443.898 265.251 441.639 267.688 438.742 267.798Z" fill="#FAAD3B"/>
<path d="M438.7 268.298C437.783 268.333 437.011 267.617 436.976 266.7L436.298 248.854C436.263 247.937 436.979 247.165 437.896 247.13C438.814 247.095 439.586 247.811 439.621 248.728L440.299 266.574C440.334 267.491 439.619 268.263 438.7 268.298Z" fill="#F1592A"/>
<path d="M438.832 243.18L443.377 341.853H453.668L463.849 261.076L474.297 341.853H484.639L487.484 243.18H438.832Z" fill="#0086FB"/>
<path d="M443.376 341.853L432.641 351.894H453.668V341.853H443.376Z" fill="#F1592A"/>
<path d="M484.639 341.853L495.375 351.894H474.348V341.853H484.639Z" fill="#F1592A"/>
<path d="M486.594 177.606L486.585 177.718L484.168 204.039L484.162 204.106L484.125 204.51L482.192 225.57L462.712 224.549L443.23 225.57L442.439 216.936L441.871 210.749L441.473 206.389L441.427 205.902L441.266 204.151V204.148L441.217 203.607V203.604L440.904 200.205L438.834 177.608V177.605L448.003 172.433L451.987 170.187L453.133 169.539L454.069 169.01L455.136 168.408L455.999 167.922L457.714 166.955H458.234L461.837 166.949C461.849 166.952 461.858 166.952 461.867 166.949C461.949 166.952 462.022 166.952 462.089 166.949C462.162 166.952 462.241 166.952 462.329 166.949C462.332 166.952 462.338 166.952 462.342 166.949H462.867L467.714 166.955L469.45 167.934L470.161 168.335L470.222 168.369L471.651 169.175L471.8 169.26L477.719 172.598L486.594 177.606Z" fill="#FFD12D"/>
<path d="M469.447 155.916H455.998V173.27H469.447V155.916Z" fill="#FAAD3B"/>
<path opacity="0.28" d="M472.018 172.349C471.893 172.346 471.772 172.343 471.65 172.337C470.881 172.306 470.149 172.249 469.449 172.167C467.765 171.969 466.278 171.629 464.974 171.191C463.457 170.686 462.18 170.051 461.112 169.367C459.905 168.589 458.963 167.753 458.232 166.955C456.582 165.156 456.032 163.575 456.001 163.478C456.001 163.474 456.001 163.474 455.998 163.471L458.664 162.052L463.623 159.412L464.429 158.984H469.449V167.934L470.16 168.335L470.221 168.369L471.649 169.174L471.798 169.26V169.266L472.018 172.349Z" fill="#634518"/>
<path d="M476.579 171.978L471.65 187.94L471.449 188.591L463.104 198.737L462.724 199.199L455.999 194.976L454.068 190.445L449.896 180.659L451.985 170.188L453.131 169.54L454.067 169.011L455.134 168.409C455.134 168.409 455.411 168.658 455.91 169.014C455.937 169.035 455.967 169.057 455.998 169.078C457.539 170.157 460.981 172.085 464.973 171.191C466.414 170.869 467.927 170.181 469.448 168.95C469.685 168.759 469.923 168.555 470.16 168.336L471.649 169.181L471.798 169.266L471.978 169.367L476.579 171.978Z" fill="#FFD12D"/>
<path d="M442.119 204.152C442.119 204.152 437.264 216.419 436.095 219.264C434.925 222.109 430.574 225.57 430.574 225.57H407.336C410.899 223.979 418.18 220.576 421.038 218.09C424.884 214.747 430.574 197.174 430.574 197.174L442.119 204.152Z" fill="#FAAD3B"/>
<path d="M518.765 225.571C515.202 223.984 507.921 220.577 505.063 218.091C501.218 214.748 495.528 197.174 495.528 197.174L483.982 204.152C483.982 204.152 488.833 216.419 490.006 219.264C491.176 222.108 495.528 225.57 495.528 225.57L518.765 225.571Z" fill="#FAAD3B"/>
<path d="M438.829 177.606L425.291 196.26L441.264 204.15L444.549 181.67L438.829 177.606Z" fill="#FFD12D"/>
<path d="M486.501 177.606L500.039 196.26L484.066 204.15L480.781 181.67L486.501 177.606Z" fill="#FFD12D"/>
<path d="M484.472 200.205L483.915 206.389H441.47L440.904 200.205H484.472Z" fill="white"/>
<path d="M483.522 210.75L482.969 216.934H442.437L441.871 210.75H483.522Z" fill="white"/>
<path d="M449.982 152.399C450.149 154.213 451.257 155.594 452.458 155.483C453.659 155.373 453.297 154.013 453.129 152.198C452.963 150.384 453.054 148.803 451.854 148.914C450.653 149.025 449.815 150.585 449.982 152.399Z" fill="#FAAD3B"/>
<path d="M472.013 154.383C471.986 156.426 471.828 158.342 471.418 159.33C470.357 161.878 467.902 163.529 466.811 164.858C466.723 164.961 466.647 165.061 466.58 165.162C465.641 166.545 463.059 166.998 462.086 166.949C461.113 166.998 458.532 166.545 457.595 165.162C456.656 163.778 453.902 162.075 452.755 159.33C451.612 156.585 452.457 146.709 452.457 146.709L459.179 145.433L462.085 144.879L471.718 146.709C471.718 146.709 471.763 147.251 471.821 148.114C471.919 149.613 472.047 152.082 472.013 154.383Z" fill="#FAAD3B"/>
<path d="M450.109 144.442C450.109 144.442 453.415 152.6 462.423 151.323C462.423 151.323 459.927 148.011 460.566 144.299L449.574 144.443" fill="#646469"/>
<path d="M453.736 147.036L453.313 155.018L451.465 146.736L453.736 147.036Z" fill="#646469"/>
<path d="M456.037 145.023C456.037 145.023 461.424 152.121 470.432 150.842C470.432 150.842 469.484 146.805 470.123 143.094L457.583 143.963" fill="#646469"/>
<path d="M469.447 146.736L469.934 155.018L471.918 149.831L471.822 146.074L469.447 146.736Z" fill="#646469"/>
<path d="M474.801 152.399C474.633 154.213 473.525 155.594 472.325 155.483C471.124 155.373 470.871 154.013 471.039 152.198C471.205 150.384 471.729 148.803 472.929 148.914C474.13 149.025 474.968 150.585 474.801 152.399Z" fill="#FAAD3B"/>
<path d="M476.576 143.925C476.576 144.655 476.527 145.369 476.442 146.074H448.134C448.049 145.369 448 144.655 448 143.925C448 139.005 449.994 134.607 453.129 131.681C453.205 131.611 453.281 131.541 453.357 131.475C454.318 130.614 455.382 129.888 456.525 129.325C458.288 128.456 460.238 127.976 462.29 127.976C465.667 127.976 468.775 129.283 471.219 131.475C471.298 131.541 471.374 131.611 471.447 131.681C473.961 134.025 475.74 137.315 476.345 141.064C476.497 141.991 476.576 142.948 476.576 143.925Z" fill="#FCB501"/>
<path d="M471.449 131.682C471.311 131.886 471.181 132.094 471.06 132.306L470.905 132.565L470.769 132.837L470.497 133.373C470.338 133.745 470.176 134.112 470.032 134.485C469.904 134.866 469.768 135.243 469.649 135.625L469.341 136.785C469.186 137.573 469.014 138.352 468.941 139.149L468.87 139.745L468.834 140.041L468.817 140.341L468.754 141.538C468.721 141.935 468.744 142.337 468.744 142.735L468.756 143.932C468.806 144.648 468.855 145.361 468.911 146.073H467.447C467.443 145.36 467.447 144.645 467.453 143.934L467.535 142.696C467.566 142.284 467.574 141.872 467.639 141.46L467.801 140.231L467.84 139.923L467.901 139.619L468.023 139.009C468.161 138.193 468.402 137.396 468.624 136.6L469.03 135.425C469.183 135.04 469.355 134.661 469.516 134.281C469.694 133.905 469.891 133.538 470.081 133.171L470.406 132.639L470.567 132.371L470.745 132.117C470.895 131.899 471.053 131.682 471.22 131.475C471.299 131.541 471.374 131.611 471.449 131.682Z" fill="#CA7E35"/>
<path d="M455.835 142.735C455.835 142.337 455.858 141.935 455.825 141.538L455.762 140.341L455.745 140.041L455.709 139.745L455.638 139.149C455.565 138.352 455.391 137.573 455.236 136.786L454.93 135.625C454.811 135.243 454.675 134.867 454.547 134.485C454.403 134.112 454.242 133.745 454.082 133.373L453.81 132.837L453.672 132.565L453.519 132.306C453.397 132.094 453.267 131.886 453.129 131.682C453.204 131.611 453.279 131.542 453.357 131.474C453.524 131.682 453.679 131.898 453.83 132.116L454.01 132.371L454.172 132.638L454.496 133.17C454.687 133.537 454.884 133.904 455.062 134.28C455.223 134.659 455.392 135.038 455.545 135.424L455.953 136.599C456.175 137.395 456.416 138.192 456.554 139.009L456.676 139.618L456.737 139.922L456.776 140.23L456.937 141.46C457.002 141.871 457.01 142.283 457.042 142.695L457.123 143.933C457.127 144.645 457.134 145.359 457.132 146.073H455.664C455.721 145.361 455.771 144.647 455.822 143.931L455.835 142.735Z" fill="#CA7E35"/>
<path d="M448.135 146.074C448.135 146.074 459.478 149.055 476.442 146.074H448.135Z" fill="#CA7E35"/>
<path opacity="0.33" d="M476.576 143.925C476.576 144.655 476.527 145.369 476.442 146.074H448.134C448.049 145.369 448 144.655 448 143.925C448 139.006 449.994 134.607 453.129 131.681C453.205 131.612 453.281 131.542 453.357 131.475C454.318 130.614 455.382 129.888 456.525 129.325C459.03 132.454 462.107 135.127 465.573 137.142C468.894 139.072 472.563 140.398 476.346 141.064C476.497 141.991 476.576 142.948 476.576 143.925Z" fill="#F79C0D"/>
<path d="M476.443 146.074H448.135C448.135 146.074 459.344 141.346 476.443 146.074Z" fill="#FCB501"/>
<path d="M454.067 169.01V205.388H448.002V172.434L451.984 170.187L453.131 169.54L454.067 169.01Z" fill="#F1592A"/>
<path d="M477.719 172.598V205.388H471.65V169.174L471.799 169.259L477.719 172.598Z" fill="#F1592A"/>
<path d="M515.76 242.201C479.806 247.675 443.66 247.675 407.706 242.201C403.456 225.328 399.206 208.454 394.955 191.581C439.333 198.387 484.133 198.387 528.511 191.581C524.261 208.454 520.01 225.328 515.76 242.201Z" fill="#9A999E"/>
<path d="M401.341 216.934L398.283 221.615L400.823 226.525C401.945 228.692 404.341 229.876 406.747 229.464C410.442 228.83 415.21 227.655 414.646 225.864C413.737 222.979 411.313 215.556 408.586 216.313C405.859 217.071 401.867 219.018 401.867 219.018L401.341 216.934Z" fill="#FAAD3B"/>
<path d="M522.102 216.934L525.161 221.615L522.494 226.77C521.676 228.351 519.982 229.281 518.21 229.115C514.353 228.755 508.168 227.862 508.799 225.863C509.707 222.979 512.132 215.555 514.859 216.313C517.586 217.07 521.578 219.018 521.578 219.018L522.102 216.934Z" fill="#FAAD3B"/>
<path d="M475.394 254.147H452.621V268.962H475.394V254.147Z" fill="#0086FB"/>
<path d="M216.881 305.115C216.881 308.688 213.985 311.584 210.411 311.584C206.839 311.584 203.941 308.688 203.941 305.115C203.941 301.542 206.838 298.645 210.411 298.645C213.985 298.645 216.881 301.542 216.881 305.115Z" fill="#97969C"/>
<path d="M236.838 298.645H209.732V311.584H236.838V298.645Z" fill="#97969C"/>
<path d="M243.306 305.115C243.306 308.688 240.41 311.584 236.837 311.584C233.264 311.584 230.367 308.688 230.367 305.115C230.367 301.542 233.264 298.645 236.837 298.645C240.41 298.645 243.306 301.542 243.306 305.115Z" fill="#A1A0A6"/>
<path d="M242.013 305.115C242.013 307.973 239.696 310.291 236.837 310.291C233.977 310.291 231.66 307.974 231.66 305.115C231.66 302.256 233.977 299.938 236.837 299.938C239.696 299.938 242.013 302.256 242.013 305.115Z" fill="#8F8F94"/>
<path d="M211.661 298.688C214.96 297.314 216.519 293.526 215.145 290.227C213.77 286.929 209.982 285.369 206.683 286.744C203.385 288.118 201.825 291.907 203.2 295.205C204.575 298.503 208.363 300.063 211.661 298.688Z" fill="#AAA9B0"/>
<path d="M235.926 299.176H208.477V286.237H235.582L235.926 299.176Z" fill="#AAA9B0"/>
<path d="M237.086 299.015C240.563 298.191 242.714 294.704 241.89 291.227C241.066 287.75 237.58 285.599 234.102 286.423C230.625 287.247 228.475 290.734 229.299 294.211C230.123 297.688 233.609 299.839 237.086 299.015Z" fill="#A1A0A6"/>
<path d="M235.581 297.883C238.439 297.883 240.757 295.565 240.757 292.706C240.757 289.848 238.439 287.53 235.581 287.53C232.722 287.53 230.404 289.848 230.404 292.706C230.404 295.565 232.722 297.883 235.581 297.883Z" fill="#8F8F94"/>
<path d="M200.341 292.575C200.341 296.148 197.444 299.044 193.871 299.044C190.299 299.044 187.402 296.148 187.402 292.575C187.402 289.002 190.299 286.105 193.871 286.105C197.444 286.105 200.341 289.001 200.341 292.575Z" fill="#BABABF"/>
<path d="M221.301 286.105H193.191V299.044H221.301V286.105Z" fill="#BABABF"/>
<path d="M226.766 292.575C226.766 296.148 223.87 299.044 220.296 299.044C216.723 299.044 213.826 296.148 213.826 292.575C213.826 289.002 216.723 286.105 220.296 286.105C223.869 286.105 226.766 289.001 226.766 292.575Z" fill="#A1A0A6"/>
<path d="M225.474 292.575C225.474 295.433 223.157 297.751 220.297 297.751C217.439 297.751 215.121 295.434 215.121 292.575C215.121 289.716 217.438 287.398 220.297 287.398C223.157 287.398 225.474 289.716 225.474 292.575Z" fill="#8F8F94"/>
<path d="M202.411 286.385C205.985 286.385 208.881 283.488 208.881 279.915C208.881 276.341 205.985 273.445 202.411 273.445C198.838 273.445 195.941 276.341 195.941 279.915C195.941 283.488 198.838 286.385 202.411 286.385Z" fill="#C6C5CC"/>
<path d="M229.842 273.446H201.732V286.385H229.842V273.446Z" fill="#C6C5CC"/>
<path d="M228.837 286.385C232.41 286.385 235.307 283.488 235.307 279.915C235.307 276.341 232.41 273.445 228.837 273.445C225.264 273.445 222.367 276.341 222.367 279.915C222.367 283.488 225.264 286.385 228.837 286.385Z" fill="#A1A0A6"/>
<path d="M228.837 285.091C231.695 285.091 234.013 282.773 234.013 279.915C234.013 277.056 231.695 274.738 228.837 274.738C225.978 274.738 223.66 277.056 223.66 279.915C223.66 282.773 225.978 285.091 228.837 285.091Z" fill="#8F8F94"/>
<path d="M199.964 306.599C200.788 303.122 198.638 299.635 195.161 298.811C191.684 297.987 188.197 300.138 187.373 303.615C186.549 307.092 188.7 310.579 192.177 311.403C195.654 312.227 199.141 310.076 199.964 306.599Z" fill="#C6C5CC"/>
<path d="M220.415 311.584H192.973V298.645H220.078L220.415 311.584Z" fill="#C6C5CC"/>
<path d="M222.541 311.1C225.845 309.739 227.42 305.958 226.06 302.654C224.7 299.35 220.919 297.774 217.615 299.134C214.311 300.494 212.736 304.275 214.096 307.58C215.456 310.884 219.237 312.46 222.541 311.1Z" fill="#A1A0A6"/>
<path d="M225.253 305.115C225.253 307.973 222.936 310.291 220.077 310.291C217.218 310.291 214.9 307.974 214.9 305.115C214.9 302.256 217.218 299.938 220.077 299.938C222.936 299.938 225.253 302.256 225.253 305.115Z" fill="#8F8F94"/>
<path d="M387.539 226.099H355.418V311.861H387.539V226.099Z" fill="#B1B1B8"/>
<path d="M363.287 228.577H357.727V235.259H363.287V228.577Z" fill="#9A999E"/>
<path d="M370.473 228.577H364.912V235.259H370.473V228.577Z" fill="#9A999E"/>
<path d="M377.659 228.577H372.098V235.259H377.659V228.577Z" fill="#9A999E"/>
<path d="M384.844 228.577H379.283V235.259H384.844V228.577Z" fill="#9A999E"/>
<path d="M363.287 238.584H357.727V245.267H363.287V238.584Z" fill="#9A999E"/>
<path d="M370.473 238.584H364.912V245.267H370.473V238.584Z" fill="#9A999E"/>
<path d="M377.659 238.584H372.098V245.267H377.659V238.584Z" fill="#9A999E"/>
<path d="M384.844 238.584H379.283V245.267H384.844V238.584Z" fill="#9A999E"/>
<path d="M363.287 248.592H357.727V255.275H363.287V248.592Z" fill="#9A999E"/>
<path d="M370.473 248.592H364.912V255.275H370.473V248.592Z" fill="#9A999E"/>
<path d="M377.659 248.592H372.098V255.275H377.659V248.592Z" fill="#9A999E"/>
<path d="M384.844 248.592H379.283V255.275H384.844V248.592Z" fill="#9A999E"/>
<path d="M363.287 258.601H357.727V265.283H363.287V258.601Z" fill="#9A999E"/>
<path d="M370.473 258.601H364.912V265.283H370.473V258.601Z" fill="#9A999E"/>
<path d="M377.659 258.601H372.098V265.283H377.659V258.601Z" fill="#9A999E"/>
<path d="M384.844 258.601H379.283V265.283H384.844V258.601Z" fill="#9A999E"/>
<path d="M363.287 268.608H357.727V275.291H363.287V268.608Z" fill="#9A999E"/>
<path d="M370.473 268.608H364.912V275.291H370.473V268.608Z" fill="#9A999E"/>
<path d="M377.659 268.608H372.098V275.291H377.659V268.608Z" fill="#9A999E"/>
<path d="M384.844 268.608H379.283V275.291H384.844V268.608Z" fill="#9A999E"/>
<path d="M363.287 278.616H357.727V285.298H363.287V278.616Z" fill="#9A999E"/>
<path d="M370.473 278.616H364.912V285.298H370.473V278.616Z" fill="#9A999E"/>
<path d="M377.659 278.616H372.098V285.298H377.659V278.616Z" fill="#9A999E"/>
<path d="M384.844 278.616H379.283V285.298H384.844V278.616Z" fill="#9A999E"/>
<path d="M363.287 288.624H357.727V295.307H363.287V288.624Z" fill="#9A999E"/>
<path d="M370.473 288.624H364.912V295.307H370.473V288.624Z" fill="#9A999E"/>
<path d="M377.659 288.624H372.098V295.307H377.659V288.624Z" fill="#9A999E"/>
<path d="M384.844 288.624H379.283V295.307H384.844V288.624Z" fill="#9A999E"/>
<path d="M363.287 298.632H357.727V305.315H363.287V298.632Z" fill="#9A999E"/>
<path d="M377.109 298.632H364.912V311.86H377.109V298.632Z" fill="#9A999E"/>
<path d="M384.844 298.632H379.283V305.315H384.844V298.632Z" fill="#9A999E"/>
<path d="M245.379 283.671L249.599 307.319L252.621 306.973L262.485 291.244L245.379 283.671Z" fill="#7F7E82"/>
<path d="M278.965 250.985C278.965 250.985 266.001 254.384 262.449 257.244C258.896 260.104 257.541 263.465 254.01 265.344C250.48 267.223 245.855 273.935 246.103 277.218C246.352 280.5 247.908 284.413 247.908 284.413L258.602 290.456L276.79 273.921L285.287 260.955L282.785 254.288L278.965 250.985Z" fill="#9A999E"/>
<path d="M241.742 282.082L261.225 295.662C261.301 295.714 261.383 295.759 261.46 295.797C261.917 295.996 262.462 295.91 262.841 295.557L298.282 262.527C298.805 262.039 298.834 261.223 298.346 260.699L281.051 242.142C280.562 241.618 280.591 240.803 281.116 240.314L287.301 234.549C287.818 234.067 287.846 233.252 287.365 232.735C286.877 232.211 286.061 232.183 285.544 232.664L272.088 245.205C271.783 245.49 271.634 245.914 271.697 246.331L272.317 250.703C272.38 251.12 272.224 251.537 271.919 251.822L241.602 280.077C240.997 280.641 241.075 281.615 241.742 282.082Z" fill="#646469"/>
<path d="M286.371 269.462L292.643 263.617C293.627 262.7 293.681 261.16 292.764 260.177L290.541 257.791L282.488 265.296L286.371 269.462Z" fill="#9A999E"/>
<path d="M280.83 266.816L272.777 274.321L276.66 278.486L284.712 270.981L280.83 266.816Z" fill="#9A999E"/>
<path d="M271.13 275.858L263.078 283.363L266.961 287.529L275.013 280.024L271.13 275.858Z" fill="#9A999E"/>
<path d="M256.057 289.927L259.084 292.039C260.107 292.753 261.49 292.655 262.403 291.805L265.321 289.085L261.435 284.915L256.057 289.927Z" fill="#9A999E"/>
<path d="M281.462 264.193L289.515 256.688L283.657 250.402C282.6 249.269 280.826 249.206 279.692 250.262L273.691 255.855L281.462 264.193Z" fill="#9A999E"/>
<path d="M272.059 257.4L264.006 264.905L271.777 273.244L279.83 265.739L272.059 257.4Z" fill="#9A999E"/>
<path d="M262.332 266.416L254.279 273.922L262.05 282.259L270.102 274.754L262.332 266.416Z" fill="#9A999E"/>
<path d="M245.747 282.568C246.304 283.004 247.308 283.731 247.447 283.829C248.438 284.532 249.429 285.235 250.419 285.937C251.386 286.623 252.354 287.31 253.321 287.996C253.809 288.342 254.297 288.688 254.8 289.045C254.803 289.042 260.411 283.816 260.411 283.816L252.638 275.476C252.638 275.476 245.411 282.211 245.38 282.241C245.363 282.256 245.517 282.387 245.747 282.568Z" fill="#9A999E"/>
<path d="M292.036 260.853L290.492 259.196L283.895 265.345L286.421 268.055L291.966 262.888C292.546 262.346 292.578 261.435 292.036 260.853Z" fill="#7F7E82"/>
<path d="M283.327 270.938L280.801 268.227L274.204 274.376L276.73 277.086L283.327 270.938Z" fill="#7F7E82"/>
<path d="M273.628 279.978L271.102 277.268L264.505 283.417L267.031 286.127L273.628 279.978Z" fill="#7F7E82"/>
<path d="M263.915 289.036L261.385 286.321L257.635 289.815L259.653 291.224C260.287 291.665 261.157 291.604 261.724 291.077L263.915 289.036Z" fill="#7F7E82"/>
<path d="M288.108 256.638L282.928 251.08C282.246 250.349 281.1 250.308 280.369 250.99L275.096 255.905L281.51 262.787L288.108 256.638Z" fill="#7F7E82"/>
<path d="M278.42 265.67L272.006 258.788L265.409 264.936L271.823 271.818L278.42 265.67Z" fill="#7F7E82"/>
<path d="M268.719 274.711L262.305 267.829L255.708 273.977L262.122 280.859L268.719 274.711Z" fill="#7F7E82"/>
<path d="M259.004 283.766L252.588 276.882L246.893 282.19C247.39 282.563 247.927 282.951 248.024 283.022L254.714 287.766L259.004 283.766Z" fill="#7F7E82"/>
<path d="M284.082 274.354H281.787V295.902H284.082V274.354Z" fill="#646469"/>
<path d="M302.56 302.994H314.838V292.174H302.56V302.994Z" fill="#646469"/>
<path d="M304.097 293.824V302.34H269.943V294.457L304.097 293.824Z" fill="#646469"/>
<path d="M291.051 304.346L284.677 295.797H258.709L255.758 300.071V302.724C255.758 303.62 256.484 304.346 257.38 304.346H291.051V304.346Z" fill="#FFA200"/>
<path d="M257.047 303.06V303.159C257.047 304.841 258.41 306.213 260.091 306.213H308.069C309.751 306.213 311.113 304.841 311.113 303.159V303.06C311.113 302.931 311.103 302.802 311.084 302.682C310.904 301.18 309.621 300.016 308.069 300.016H260.091C258.539 300.016 257.256 301.18 257.077 302.682C257.058 302.802 257.047 302.931 257.047 303.06Z" fill="#FFA40A"/>
<path d="M306.678 303.457V306.213H334.681C336.651 306.213 338.242 304.641 338.282 302.681V298.165C338.282 297.29 338.023 296.474 337.576 295.798C336.809 294.614 335.467 293.828 333.944 293.828H316.307C314.108 293.828 312.089 294.565 310.468 295.798C309.503 296.534 308.677 297.459 308.05 298.494C307.761 298.971 307.513 299.479 307.314 300.016C306.986 300.852 306.777 301.747 306.707 302.682C306.688 302.941 306.678 303.199 306.678 303.457Z" fill="#FFA40A"/>
<path d="M257.047 303.06V303.159C257.047 304.841 258.41 306.213 260.091 306.213H334.679C336.649 306.213 338.241 304.641 338.28 302.681H257.077C257.058 302.801 257.047 302.931 257.047 303.06Z" fill="#4A4146"/>
<path d="M308.049 298.494H338.28V298.165C338.28 297.29 338.022 296.474 337.574 295.798H310.466C309.501 296.534 308.676 297.459 308.049 298.494Z" fill="#FFAF24"/>
<path d="M272.312 304.346C272.312 308.497 275.677 311.861 279.827 311.861C283.978 311.861 287.341 308.496 287.341 304.346C287.341 300.196 283.977 296.832 279.827 296.832C275.678 296.832 272.312 300.196 272.312 304.346Z" fill="#646469"/>
<path d="M276.152 304.346C276.152 306.376 277.797 308.02 279.826 308.02C281.855 308.02 283.5 306.376 283.5 304.346C283.5 302.317 281.855 300.673 279.826 300.673C277.798 300.673 276.152 302.317 276.152 304.346Z" fill="#4A4146"/>
<path d="M277.867 304.346C277.867 305.429 278.745 306.307 279.827 306.307C280.909 306.307 281.787 305.429 281.787 304.346C281.787 303.264 280.909 302.386 279.827 302.386C278.744 302.386 277.867 303.264 277.867 304.346Z" fill="#C28101"/>
<path d="M256.795 304.346C256.795 308.497 260.159 311.861 264.31 311.861C268.46 311.861 271.824 308.496 271.824 304.346C271.824 300.196 268.459 296.832 264.31 296.832C260.16 296.832 256.795 300.196 256.795 304.346Z" fill="#646469"/>
<path d="M260.637 304.346C260.637 306.376 262.281 308.02 264.311 308.02C266.34 308.02 267.984 306.376 267.984 304.346C267.984 302.317 266.34 300.673 264.311 300.673C262.281 300.673 260.637 302.317 260.637 304.346Z" fill="#4A4146"/>
<path d="M262.35 304.346C262.35 305.429 263.227 306.307 264.309 306.307C265.391 306.307 266.268 305.429 266.268 304.346C266.268 303.264 265.391 302.386 264.309 302.386C263.227 302.386 262.35 303.264 262.35 304.346Z" fill="#C28101"/>
<path d="M254.387 302.686C254.866 302.686 255.337 302.455 255.626 302.027L258.819 297.289H284.584L288.163 302.086C288.658 302.747 289.592 302.882 290.251 302.389C290.911 301.897 291.047 300.961 290.555 300.301L286.528 294.904C286.246 294.527 285.803 294.304 285.332 294.304H258.026C257.53 294.304 257.066 294.551 256.789 294.963L253.151 300.36C252.691 301.043 252.872 301.971 253.556 302.431C253.81 302.603 254.1 302.686 254.387 302.686Z" fill="#4A4146"/>
<path d="M309.971 274.27V290.326C309.971 293.002 312.14 295.17 314.826 295.17H334.93C337.477 295.17 339.566 293.211 339.764 290.724C339.774 290.594 339.784 290.455 339.784 290.325V286.008C339.784 285.252 339.605 284.505 339.257 283.819L338.948 283.203L333.775 272.956L333.616 272.638C332.82 271.066 331.239 270.052 329.478 269.982L320.246 269.624L315.003 269.425C312.258 269.327 309.971 271.525 309.971 274.27Z" fill="#FFA200"/>
<path d="M318.477 276.499C318.477 284.816 325.649 291.56 334.493 291.56C336.343 291.56 338.114 291.262 339.765 290.724C339.775 290.595 339.785 290.456 339.785 290.326V286.009C339.785 285.252 339.605 284.506 339.257 283.82L338.949 283.203L333.776 272.957L333.617 272.639C332.821 271.067 331.239 270.052 329.478 269.982L320.247 269.625C319.113 271.684 318.477 274.022 318.477 276.499Z" fill="#FFAF24"/>
<path d="M327.312 285.187H319.857V286.526H327.312V285.187Z" fill="#646469"/>
<path d="M319.857 276.688V279.841C319.857 281.901 321.529 283.561 323.587 283.561H337.346C337.923 283.561 338.46 283.432 338.947 283.203L338.46 282.248L334.322 274.041L333.775 272.956H323.587C321.529 272.958 319.857 274.629 319.857 276.688Z" fill="#4A4146"/>
<path d="M322.475 276.191V280.309C322.475 281.195 323.27 281.911 324.245 281.911H335.795C336.054 281.911 336.303 281.891 336.541 281.831L332.523 274.579H324.256C323.669 274.579 323.142 274.837 322.833 275.245C322.604 275.514 322.475 275.843 322.475 276.191Z" fill="#0086FB"/>
<path d="M326.9 274.579L332.391 281.911H334.679L329.088 274.579H326.9Z" fill="white"/>
<path d="M322.832 275.245L327.826 281.911H330.114L324.523 274.579H324.255C323.668 274.579 323.141 274.838 322.832 275.245Z" fill="white"/>
<path d="M313.713 290.565H335.594V289.4H313.713V290.565Z" fill="#FFAF24"/>
<path d="M313.713 291.853H335.594V291.267H313.713V291.853Z" fill="#FFAF24"/>
<path d="M316.646 304.346C316.646 308.497 320.011 311.861 324.161 311.861C328.311 311.861 331.675 308.496 331.675 304.346C331.675 300.196 328.31 296.832 324.161 296.832C320.01 296.832 316.646 300.196 316.646 304.346Z" fill="#646469"/>
<path d="M320.486 304.346C320.486 306.376 322.131 308.02 324.16 308.02C326.189 308.02 327.834 306.376 327.834 304.346C327.834 302.317 326.189 300.673 324.16 300.673C322.131 300.673 320.486 302.317 320.486 304.346Z" fill="#4A4146"/>
<path d="M322.201 304.346C322.201 305.429 323.079 306.307 324.161 306.307C325.243 306.307 326.121 305.429 326.121 304.346C326.121 303.264 325.243 302.386 324.161 302.386C323.079 302.386 322.201 303.264 322.201 304.346Z" fill="#C28101"/>
<path d="M315.204 305.838C316.028 305.838 316.696 305.17 316.696 304.346C316.696 300.231 320.045 296.882 324.16 296.882C328.276 296.882 331.624 300.231 331.624 304.346C331.624 305.17 332.292 305.838 333.116 305.838C333.94 305.838 334.608 305.17 334.608 304.346C334.608 298.586 329.92 293.898 324.159 293.898C318.399 293.898 313.711 298.586 313.711 304.346C313.712 305.169 314.38 305.838 315.204 305.838Z" fill="#4A4146"/>
<path d="M244.578 284.059L247.529 298.082L249.42 297.583L246.498 284.915L244.578 284.059Z" fill="#646469"/>
<path d="M257.38 303.929H197.57V311.585H257.38V303.929Z" fill="#FFA40A"/>
<path d="M207.441 303.929L197.57 309.875V306.617L202.026 303.929H207.441Z" fill="#646469"/>
<path d="M219.155 303.929L206.455 311.584H201.049L213.748 303.929H219.155Z" fill="#646469"/>
<path d="M230.88 303.929L218.181 311.584H212.773L225.473 303.929H230.88Z" fill="#646469"/>
<path d="M242.602 303.929L229.903 311.584H224.496L237.196 303.929H242.602Z" fill="#646469"/>
<path d="M254.326 303.929L241.626 311.584H236.219L248.918 303.929H254.326Z" fill="#646469"/>
<path d="M257.381 305.897V309.155L253.351 311.584H247.936L257.381 305.897Z" fill="#646469"/>
</svg>
